<svg width="654" height="552" viewBox="0 0 654 552" fill="none" xmlns="http://www.w3.org/2000/svg">
<path d="M588.469 509.681H545.148V510.052H588.469V509.681Z" fill="#EBEBEB"/>
<path d="M433.236 513.717H421.869V514.088H433.236V513.717Z" fill="#EBEBEB"/>
<path d="M543.84 495.911H518.74V496.282H543.84V495.911Z" fill="#EBEBEB"/>
<path d="M125.11 498.404H68.6177V498.775H125.11V498.404Z" fill="#EBEBEB"/>
<path d="M145.044 498.404H136.765V498.775H145.044V498.404Z" fill="#EBEBEB"/>
<path d="M294.496 504.666H171.963V505.037H294.496V504.666Z" fill="#EBEBEB"/>
<path d="M311.827 419.627H59.2524C57.2716 419.627 55.3719 418.735 53.9712 417.146C52.5706 415.557 51.7837 413.402 51.7837 411.155V8.39848C51.8009 6.16427 52.5954 4.02823 53.9942 2.4553C55.393 0.882379 57.2828 -8.56555e-05 59.2524 6.23587e-09H311.827C312.808 6.23588e-09 313.779 0.21915 314.685 0.644942C315.591 1.07073 316.415 1.69483 317.108 2.48159C317.802 3.26835 318.352 4.20237 318.727 5.23033C319.103 6.25828 319.296 7.36003 319.296 8.47267V411.155C319.296 412.267 319.103 413.369 318.727 414.397C318.352 415.425 317.802 416.359 317.108 417.146C316.415 417.933 315.591 418.557 314.685 418.982C313.779 419.408 312.808 419.627 311.827 419.627V419.627ZM59.2524 0.296767C57.3593 0.30069 55.5448 1.15552 54.2063 2.67404C52.8677 4.19255 52.1141 6.25098 52.1107 8.39848V411.155C52.1141 413.302 52.8677 415.361 54.2063 416.879C55.5448 418.398 57.3593 419.252 59.2524 419.256H311.827C313.72 419.252 315.535 418.398 316.873 416.879C318.212 415.361 318.965 413.302 318.969 411.155V8.39848C318.965 6.25098 318.212 4.19255 316.873 2.67404C315.535 1.15552 313.72 0.30069 311.827 0.296767H59.2524Z" fill="#EBEBEB"/>
<path d="M594.748 419.627H342.173C340.192 419.627 338.292 418.735 336.892 417.146C335.491 415.557 334.704 413.402 334.704 411.155V8.39848C334.721 6.16427 335.516 4.02823 336.915 2.4553C338.313 0.882379 340.203 -8.56555e-05 342.173 6.23587e-09H594.748C596.728 6.23589e-09 598.628 0.892655 600.029 2.48159C601.429 4.07052 602.216 6.22558 602.216 8.47267V411.155C602.216 413.402 601.429 415.557 600.029 417.146C598.628 418.735 596.728 419.627 594.748 419.627V419.627ZM342.173 0.296767C340.28 0.30069 338.465 1.15552 337.127 2.67404C335.788 4.19255 335.035 6.25098 335.031 8.39848V411.155C335.035 413.302 335.788 415.361 337.127 416.879C338.465 418.398 340.28 419.252 342.173 419.256H594.748C596.641 419.252 598.455 418.398 599.794 416.879C601.132 415.361 601.886 413.302 601.889 411.155V8.39848C601.886 6.25098 601.132 4.19255 599.794 2.67404C598.455 1.15552 596.641 0.30069 594.748 0.296767H342.173Z" fill="#EBEBEB"/>
<path d="M654 485.806H0V486.177H654V485.806Z" fill="#EBEBEB"/>
<path d="M580.961 37.6151H355.305V319.424H580.961V37.6151Z" fill="#E9E9E9"/>
<path d="M577.037 42.1705H359.661V314.439H577.037V42.1705Z" fill="#F9F9F9"/>
<path d="M444.079 196.578H416.311V315.151H444.079V196.578Z" fill="#F0F0F0"/>
<path d="M418.311 187.467H393.302V315.151H418.311V187.467Z" fill="#F0F0F0"/>
<path d="M397.697 249.209H372.688V315.166H397.697V249.209Z" fill="#EBEBEB"/>
<path d="M467.662 232.68H439.893V315.151H467.662V232.68Z" fill="#F0F0F0"/>
<path d="M400.261 199.991H397.697V202.914H400.261V199.991Z" fill="white"/>
<path d="M413.916 199.991H411.353V202.914H413.916V199.991Z" fill="white"/>
<path d="M400.261 209.487H397.697V212.41H400.261V209.487Z" fill="white"/>
<path d="M407.089 209.487H404.525V212.41H407.089V209.487Z" fill="white"/>
<path d="M413.916 218.969H411.353V221.892H413.916V218.969Z" fill="white"/>
<path d="M400.261 228.451H397.697V231.374H400.261V228.451Z" fill="white"/>
<path d="M407.089 228.451H404.525V231.374H407.089V228.451Z" fill="white"/>
<path d="M407.089 237.947H404.525V240.87H407.089V237.947Z" fill="white"/>
<path d="M413.916 237.947H411.353V240.87H413.916V237.947Z" fill="white"/>
<path d="M407.089 247.429H404.525V250.352H407.089V247.429Z" fill="white"/>
<path d="M413.916 247.429H411.353V250.352H413.916V247.429Z" fill="white"/>
<path d="M413.916 256.911H411.353V259.834H413.916V256.911Z" fill="white"/>
<path d="M407.089 266.407H404.525V269.33H407.089V266.407Z" fill="white"/>
<path d="M459.317 240.87H461.881V237.947H459.317V240.87Z" fill="white"/>
<path d="M445.662 240.87H448.226V237.947H445.662V240.87Z" fill="white"/>
<path d="M459.317 250.352H461.881V247.429H459.317V250.352Z" fill="white"/>
<path d="M452.49 250.352H455.053V247.429H452.49V250.352Z" fill="white"/>
<path d="M445.662 259.848H448.226V256.925H445.662V259.848Z" fill="white"/>
<path d="M459.317 269.315H461.881V266.392H459.317V269.315Z" fill="white"/>
<path d="M452.49 269.315H455.053V266.392H452.49V269.315Z" fill="white"/>
<path d="M452.49 278.812H455.053V275.889H452.49V278.812Z" fill="white"/>
<path d="M445.662 278.812H448.226V275.889H445.662V278.812Z" fill="white"/>
<path d="M452.49 288.308H455.053V285.385H452.49V288.308Z" fill="white"/>
<path d="M445.662 288.308H448.226V285.385H445.662V288.308Z" fill="white"/>
<path d="M445.662 297.79H448.226V294.867H445.662V297.79Z" fill="white"/>
<path d="M452.49 307.272H455.053V304.349H452.49V307.272Z" fill="white"/>
<path d="M500.297 317.199H527.542V170.448H500.297V317.199Z" fill="#F0F0F0"/>
<path d="M525.568 317.199H550.106V159.171H525.568V317.199Z" fill="#F5F5F5"/>
<path d="M545.802 317.213H570.34V235.603H545.802V317.213Z" fill="#EBEBEB"/>
<path d="M477.158 317.199H504.404V215.141H477.158V317.199Z" fill="#F5F5F5"/>
<path d="M543.291 178.327H545.802V174.706H543.291V178.327Z" fill="white"/>
<path d="M529.897 178.327H532.408V174.706H529.897V178.327Z" fill="white"/>
<path d="M543.291 190.064H545.802V186.443H543.291V190.064Z" fill="white"/>
<path d="M536.581 190.064H539.092V186.443H536.581V190.064Z" fill="white"/>
<path d="M529.897 201.786H532.408V198.166H529.897V201.786Z" fill="white"/>
<path d="M543.291 213.538H545.802V209.918H543.291V213.538Z" fill="white"/>
<path d="M536.581 213.538H539.092V209.918H536.581V213.538Z" fill="white"/>
<path d="M536.581 225.275H539.092V221.655H536.581V225.275Z" fill="white"/>
<path d="M529.897 225.275H532.408V221.655H529.897V225.275Z" fill="white"/>
<path d="M536.581 237.027H539.092V233.407H536.581V237.027Z" fill="white"/>
<path d="M529.897 237.027H532.408V233.407H529.897V237.027Z" fill="white"/>
<path d="M529.897 248.764H532.408V245.144H529.897V248.764Z" fill="white"/>
<path d="M536.581 260.486H539.092V256.866H536.581V260.486Z" fill="white"/>
<path d="M485.333 221.655H482.822V225.275H485.333V221.655Z" fill="white"/>
<path d="M498.727 221.655H496.216V225.275H498.727V221.655Z" fill="white"/>
<path d="M485.333 233.392H482.822V237.012H485.333V233.392Z" fill="white"/>
<path d="M492.03 233.392H489.519V237.012H492.03V233.392Z" fill="white"/>
<path d="M498.727 245.129H496.216V248.749H498.727V245.129Z" fill="white"/>
<path d="M485.333 256.881H482.822V260.501H485.333V256.881Z" fill="white"/>
<path d="M492.03 256.881H489.519V260.501H492.03V256.881Z" fill="white"/>
<path d="M492.03 268.618H489.519V272.239H492.03V268.618Z" fill="white"/>
<path d="M498.727 268.618H496.216V272.239H498.727V268.618Z" fill="white"/>
<path d="M492.03 280.355H489.519V283.976H492.03V280.355Z" fill="white"/>
<path d="M498.727 280.355H496.216V283.976H498.727V280.355Z" fill="white"/>
<path d="M498.727 292.092H496.216V295.713H498.727V292.092Z" fill="white"/>
<path d="M492.03 303.829H489.519V307.45H492.03V303.829Z" fill="white"/>
<path d="M428.841 100.9C428.841 100.9 359.962 112 367.103 88.2582C374.245 64.5169 388.764 88.2582 388.764 88.2582C388.764 88.2582 396.232 73.4199 404.381 77.7082C406.777 79.0506 408.848 81.0363 410.414 83.4929C411.98 85.9495 412.994 88.8027 413.367 91.8046C413.367 91.8046 415.787 83.8364 422.314 92.3684C428.841 100.9 428.213 90.5136 428.841 100.9Z" fill="#F0F0F0"/>
<path d="M486.772 127.966C486.772 127.966 431.195 136.869 436.95 117.757C442.706 98.6451 454.425 117.757 454.425 117.757C454.425 117.757 460.455 105.723 467.034 109.24C468.969 110.325 470.641 111.928 471.906 113.911C473.17 115.894 473.99 118.197 474.294 120.621C474.294 120.621 476.243 114.196 481.514 121.081C486.785 127.966 486.275 119.552 486.772 127.966Z" fill="#F0F0F0"/>
<path d="M558.071 98.3335C558.071 98.3335 489.65 109.358 496.739 85.7803C503.829 62.2022 518.256 85.7803 518.256 85.7803C518.256 85.7803 525.672 70.942 533.769 75.2896C536.149 76.6236 538.206 78.597 539.76 81.0382C541.315 83.4794 542.321 86.3145 542.689 89.2969C542.689 89.2969 545.096 81.3881 551.584 89.8608C558.071 98.3335 557.444 87.9912 558.071 98.3335Z" fill="#F0F0F0"/>
<path d="M432.66 38.2531H428.841V319.424H432.66V38.2531Z" fill="#E9E9E9"/>
<path d="M504.496 38.2531H500.676V319.424H504.496V38.2531Z" fill="#E9E9E9"/>
<path d="M141.434 205.852H85.5564V486.133H141.434V205.852Z" fill="#E6E6E6"/>
<path d="M282.62 205.852H124.94V486.133H282.62V205.852Z" fill="#F5F5F5"/>
<path d="M275.125 214.606H208.443V477.363H275.125V214.606Z" fill="#EBEBEB"/>
<path d="M200.673 214.606H133.992V477.363H200.673V214.606Z" fill="#EBEBEB"/>
<path d="M208.443 312.984H267.067V299.289H208.443V312.984Z" fill="#F5F5F5"/>
<path d="M133.992 312.984H192.616V299.289H133.992V312.984Z" fill="#F5F5F5"/>
<path d="M208.443 394.729H267.067V381.033H208.443V394.729Z" fill="#F5F5F5"/>
<path d="M133.992 394.729H192.616V381.033H133.992V394.729Z" fill="#F5F5F5"/>
<path d="M246.126 477.363H252.496V402.385H246.126V477.363Z" fill="#FAFAFA"/>
<path d="M239.756 477.363H246.126V408.87H239.756V477.363Z" fill="#E0E0E0"/>
<path d="M252.496 477.363H258.866V408.87H252.496V477.363Z" fill="#E0E0E0"/>
<path d="M215.545 477.363H220.503V408.87H215.545V477.363Z" fill="#E0E0E0"/>
<path d="M208.43 477.363H215.545V403.572H208.43V477.363Z" fill="#F0F0F0"/>
<path d="M230.129 477.363H239.743V408.87H230.129V477.363Z" fill="#F5F5F5"/>
<path d="M220.516 477.363H230.13V404.566H220.516V477.363Z" fill="#E6E6E6"/>
<path d="M171.662 477.363H178.032V402.385H171.662V477.363Z" fill="#E0E0E0"/>
<path d="M165.305 477.363H171.675V408.87H165.305V477.363Z" fill="#E0E0E0"/>
<path d="M178.045 477.363H184.415V408.87H178.045V477.363Z" fill="#FAFAFA"/>
<path d="M141.094 477.363H146.051V408.87H141.094V477.363Z" fill="#E0E0E0"/>
<path d="M133.978 477.363H141.094V403.572H133.978V477.363Z" fill="#F0F0F0"/>
<path d="M155.678 477.363H165.292V408.87H155.678V477.363Z" fill="#F5F5F5"/>
<path d="M146.064 477.363H155.678V404.566H146.064V477.363Z" fill="#E6E6E6"/>
<path d="M214.813 318.935H208.443V381.478H214.813V318.935Z" fill="#FAFAFA"/>
<path d="M221.183 324.336H214.813V381.478H221.183V324.336Z" fill="#E0E0E0"/>
<path d="M245.381 324.336H240.423V381.478H245.381V324.336Z" fill="#E0E0E0"/>
<path d="M258.16 324.336H252.496V381.478H258.16V324.336Z" fill="#E0E0E0"/>
<path d="M252.496 319.929H245.381V381.478H252.496V319.929Z" fill="#F0F0F0"/>
<path d="M230.797 324.336H221.183V381.478H230.797V324.336Z" fill="#F5F5F5"/>
<path d="M240.423 320.76H230.81V381.478H240.423V320.76Z" fill="#E6E6E6"/>
<path d="M140.021 318.935H133.651V381.478H140.021V318.935Z" fill="#E0E0E0"/>
<path d="M146.391 324.336H140.021V381.478H146.391V324.336Z" fill="#E6E6E6"/>
<path d="M170.589 324.336H165.632V381.478H170.589V324.336Z" fill="#E0E0E0"/>
<path d="M177.705 319.929H170.589V381.478H177.705V319.929Z" fill="#F0F0F0"/>
<path d="M184.794 319.929H177.679V381.478H184.794V319.929Z" fill="#F5F5F5"/>
<path d="M156.005 324.336H146.391V381.478H156.005V324.336Z" fill="#F5F5F5"/>
<path d="M165.632 320.76H156.018V381.478H165.632V320.76Z" fill="#E6E6E6"/>
<path d="M214.813 247.666H208.443V299.274H214.813V247.666Z" fill="#FAFAFA"/>
<path d="M221.183 242.146H214.813V299.289H221.183V242.146Z" fill="#E0E0E0"/>
<path d="M258.866 242.146H252.496V299.289H258.866V242.146Z" fill="#E0E0E0"/>
<path d="M245.381 242.146H240.423V299.289H245.381V242.146Z" fill="#E0E0E0"/>
<path d="M252.496 237.725H245.381V299.274H252.496V237.725Z" fill="#F0F0F0"/>
<path d="M230.797 242.146H221.183V299.289H230.797V242.146Z" fill="#F5F5F5"/>
<path d="M240.423 238.556H230.81V299.274H240.423V238.556Z" fill="#E6E6E6"/>
<path d="M171.662 299.289H178.032V247.681H171.662V299.289Z" fill="#FAFAFA"/>
<path d="M165.305 299.274H171.675V242.131H165.305V299.274Z" fill="#E0E0E0"/>
<path d="M178.045 299.274H184.415V242.131H178.045V299.274Z" fill="#E0E0E0"/>
<path d="M141.094 299.274H146.051V242.131H141.094V299.274Z" fill="#E0E0E0"/>
<path d="M133.978 299.289H141.094V252.429H133.978V299.289Z" fill="#E0E0E0"/>
<path d="M155.678 299.274H165.292V242.131H155.678V299.274Z" fill="#F5F5F5"/>
<path d="M146.064 299.289H155.678V238.57H146.064V299.289Z" fill="#E6E6E6"/>
<path d="M209.947 179.929C209.947 179.929 217.089 183.772 218.894 177.244C220.699 170.715 228.246 177.496 229.75 169.824C231.254 162.153 237.428 167.228 239.547 161.886C241.666 156.544 248.795 156.411 248.35 150.935C247.905 145.46 239.639 151.306 235.872 149.733C232.105 148.16 229.698 157.286 224.728 157.301C219.757 157.316 218.109 168.074 214.852 166.797C211.595 165.521 209.032 174.706 209.947 179.929Z" fill="#EBEBEB"/>
<path d="M208.417 182.586C208.417 182.586 222.805 163.815 241.64 152.464C241.64 152.464 231.764 154.066 207.083 181.947L208.417 182.586Z" fill="#E0E0E0"/>
<path d="M183.957 177.258C183.957 177.258 172.342 173.519 176.109 163.904C179.876 154.289 165.148 153.517 170.249 142.967C175.35 132.417 163.709 131.215 166.037 122.668C168.366 114.121 160.282 105.812 165.645 100.025C171.008 94.2381 175.324 110.412 181.04 112.89C186.756 115.368 181.42 128.619 187.122 134.316C192.825 140.014 185.187 154.244 190.052 156.485C194.918 158.725 189.66 172.302 183.957 177.258Z" fill="#E0E0E0"/>
<path d="M183.356 182.051C183.356 182.051 183.356 144.006 171.897 109.536C171.897 109.536 181.825 122.639 185.448 182.853L183.356 182.051Z" fill="#FAFAFA"/>
<path d="M201.536 178.505C201.536 178.505 211.281 180.909 211.883 172.184C212.484 163.459 223.446 169.409 223.367 159.319C223.289 149.229 232.17 153.547 233.426 146.202C234.681 138.857 243.445 136.32 241.522 129.657C239.599 122.995 230.901 133.011 225.826 132.298C220.751 131.586 220.11 143.754 214.054 145.415C207.998 147.077 208.6 161.01 204.27 160.506C199.941 160.001 199.104 172.317 201.536 178.505Z" fill="#E0E0E0"/>
<path d="M200.307 182.318C200.307 182.318 213.387 154.126 233.648 133.827C233.648 133.827 221.876 139.079 198.515 181.962L200.307 182.318Z" fill="#F5F5F5"/>
<path d="M156.175 180.701C156.175 180.701 149.374 183.357 148.118 176.413C146.862 169.468 139.524 175.062 138.635 166.975C137.745 158.889 131.755 162.999 130.159 157.212C128.563 151.425 122.01 150.045 122.769 144.57C123.528 139.094 130.748 146.454 134.305 145.504C137.863 144.555 139.537 154.259 144.063 155.12C148.589 155.98 149.452 167.213 152.513 166.471C155.574 165.729 157.352 175.552 156.175 180.701Z" fill="#F0F0F0"/>
<path d="M157.405 183.654C157.405 183.654 145.345 162.094 128.838 147.315C128.838 147.315 137.798 150.639 158.673 183.238L157.405 183.654Z" fill="#E0E0E0"/>
<path d="M165.07 176.427C165.07 176.427 160.557 180.226 153.468 165.64C146.378 151.054 139.917 133.767 131.363 128.544C131.363 128.544 143.135 126.096 154.357 143.798C165.58 161.5 167.424 174.914 165.07 176.427Z" fill="#E0E0E0"/>
<path d="M168.117 182.155C164.572 172.955 161.329 165.492 158.425 159.452C157.842 157.221 157.806 154.851 158.32 152.597C157.503 154.077 157.213 155.854 157.509 157.568C155.103 152.686 152.957 148.799 151.074 145.697C150.237 142.388 151.205 141.246 151.205 141.246C150.119 141.735 150.08 143.16 150.263 144.332C145.136 136.186 142.258 134.331 142.258 134.331C143.474 135.949 144.639 137.596 145.777 139.272C144.36 138.31 142.731 137.826 141.081 137.878C143.152 138.24 145.102 139.217 146.731 140.712C148.994 144.154 151.061 147.671 152.944 151.098C151.167 149.183 148.988 147.814 146.614 147.122C147.111 147.27 150.211 148.413 154.187 153.413C156.332 157.464 158.189 161.381 159.785 164.957C157.801 163.247 155.339 162.409 152.853 162.598C155.642 162.967 158.271 164.275 160.4 166.352C162.66 171.479 164.685 176.733 166.469 182.096L168.117 182.155Z" fill="#F5F5F5"/>
<path d="M173.101 175.671C173.101 175.671 167.869 178.134 164.089 162.049C160.309 145.964 157.549 127.431 150.407 120.072C150.407 120.072 162.388 120.888 169.53 141.083C176.672 161.278 175.678 174.825 173.101 175.671Z" fill="#F5F5F5"/>
<path d="M174.853 182.051C173.336 172.154 171.753 164.038 170.197 157.375C170.092 155.056 170.545 152.748 171.505 150.698C170.406 151.921 169.752 153.568 169.674 155.313C168.366 149.926 167.058 145.564 165.907 142.062C165.789 138.634 166.966 137.848 166.966 137.848C165.802 138.026 165.462 139.332 165.397 140.578C162.127 131.275 159.733 128.708 159.733 128.708C160.57 130.607 161.355 132.521 162.1 134.45C160.928 133.132 159.449 132.221 157.836 131.824C159.773 132.737 161.461 134.217 162.728 136.112C164.206 140.074 165.475 144.035 166.652 147.893C165.326 145.549 163.494 143.628 161.329 142.314C161.773 142.596 164.546 144.54 167.372 150.475C168.588 154.927 169.582 159.378 170.38 163.207C168.813 161.006 166.597 159.525 164.141 159.037C166.772 160.149 169.049 162.128 170.681 164.72C171.808 170.309 172.681 175.96 173.297 181.651L174.853 182.051Z" fill="#E0E0E0"/>
<path d="M193.584 175.196C193.584 175.196 200.412 178.164 204.911 157.138C209.411 136.112 212.328 111.851 221.497 101.999C221.497 101.999 205.931 103.482 197.22 130.073C188.509 156.663 190.157 174.202 193.584 175.196Z" fill="#F5F5F5"/>
<path d="M191.426 183.565C193.113 170.641 194.931 160.016 196.762 151.291C196.816 148.261 196.142 145.271 194.813 142.641C196.285 144.187 197.186 146.307 197.338 148.576C198.881 141.513 200.425 135.8 201.851 131.2C201.851 126.749 200.359 125.755 200.359 125.755C201.877 125.933 202.348 127.699 202.465 129.257C206.468 117.015 209.502 113.587 209.502 113.587C208.469 116.08 207.501 118.617 206.585 121.155C208.074 119.402 209.97 118.162 212.053 117.579C209.563 118.842 207.411 120.828 205.814 123.336C204.022 128.544 202.478 133.723 201.144 138.812C202.799 135.721 205.128 133.166 207.907 131.393C207.331 131.779 203.773 134.361 200.281 142.225C198.816 148.161 197.665 153.799 196.736 158.903C198.711 155.987 201.55 153.979 204.728 153.25C199.797 155.847 197.482 158.859 196.383 160.892C195.111 168.196 194.177 175.571 193.584 182.986L191.426 183.565Z" fill="#E0E0E0"/>
<path d="M232.157 186.963L229.541 198.507C229.025 200.709 227.884 202.657 226.296 204.051C224.708 205.445 222.759 206.208 220.751 206.223H150.158C148.15 206.208 146.202 205.445 144.614 204.051C143.025 202.657 141.885 200.709 141.369 198.507L138.753 186.963C138.573 186.174 138.555 185.349 138.7 184.551C138.844 183.753 139.148 183.004 139.587 182.359C140.026 181.715 140.59 181.193 141.234 180.834C141.878 180.474 142.586 180.287 143.305 180.285H227.592C228.312 180.281 229.023 180.465 229.67 180.823C230.318 181.181 230.884 181.702 231.325 182.348C231.766 182.993 232.071 183.745 232.215 184.545C232.359 185.345 232.339 186.173 232.157 186.963V186.963Z" fill="#E6E6E6"/>
<path d="M327 552C467.064 552 580.608 544.48 580.608 535.203C580.608 525.926 467.064 518.406 327 518.406C186.936 518.406 73.392 525.926 73.392 535.203C73.392 544.48 186.936 552 327 552Z" fill="#F5F5F5"/>
<path d="M463.176 516.67L433.72 442.582H364.853L375.396 511.922C375.52 512.73 375.502 513.559 375.344 514.36C375.186 515.161 374.89 515.919 374.473 516.59C374.056 517.261 373.527 517.832 372.916 518.271C372.304 518.71 371.623 519.008 370.91 519.148C370.616 519.208 370.318 519.237 370.02 519.237H339.818C339.041 519.237 338.296 519.587 337.747 520.211C337.197 520.834 336.888 521.679 336.888 522.561V526.241C336.888 527.122 337.197 527.968 337.747 528.591C338.296 529.214 339.041 529.564 339.818 529.564H461.044C461.887 529.564 462.695 529.185 463.291 528.508C463.887 527.832 464.222 526.915 464.222 525.959V522.13C464.214 520.247 463.857 518.387 463.176 516.67V516.67ZM431.287 507.47H398.221C397.178 507.467 396.171 507.047 395.374 506.284C394.578 505.522 394.043 504.466 393.865 503.301L388.881 470.656C388.782 470.007 388.796 469.343 388.923 468.7C389.049 468.057 389.287 467.449 389.621 466.91C389.955 466.372 390.379 465.913 390.869 465.56C391.36 465.207 391.906 464.968 392.478 464.855C392.735 464.832 392.993 464.832 393.25 464.855H418.246C419.1 464.855 419.936 465.135 420.653 465.662C421.37 466.188 421.938 466.939 422.288 467.822L435.368 500.467C435.667 501.231 435.794 502.069 435.737 502.904C435.68 503.738 435.441 504.543 435.042 505.247C434.642 505.951 434.094 506.53 433.448 506.934C432.802 507.338 432.077 507.553 431.339 507.559L431.287 507.47Z" fill="#263238"/>
<path opacity="0.5" d="M463.176 516.67L433.72 442.582H364.853L375.396 511.922C375.52 512.73 375.502 513.559 375.344 514.36C375.186 515.161 374.89 515.919 374.473 516.59C374.056 517.261 373.527 517.832 372.916 518.271C372.304 518.71 371.623 519.008 370.91 519.148C370.616 519.208 370.318 519.237 370.02 519.237H339.818C339.041 519.237 338.296 519.587 337.747 520.211C337.197 520.834 336.888 521.679 336.888 522.561V526.241C336.888 527.122 337.197 527.968 337.747 528.591C338.296 529.214 339.041 529.564 339.818 529.564H461.044C461.887 529.564 462.695 529.185 463.291 528.508C463.887 527.832 464.222 526.915 464.222 525.959V522.13C464.214 520.247 463.857 518.387 463.176 516.67V516.67ZM431.287 507.47H398.221C397.178 507.467 396.171 507.047 395.374 506.284C394.578 505.522 394.043 504.466 393.865 503.301L388.881 470.656C388.782 470.007 388.796 469.343 388.923 468.7C389.049 468.057 389.287 467.449 389.621 466.91C389.955 466.372 390.379 465.913 390.869 465.56C391.36 465.207 391.906 464.968 392.478 464.855C392.735 464.832 392.993 464.832 393.25 464.855H418.246C419.1 464.855 419.936 465.135 420.653 465.662C421.37 466.188 421.938 466.939 422.288 467.822L435.368 500.467C435.667 501.231 435.794 502.069 435.737 502.904C435.68 503.738 435.441 504.543 435.042 505.247C434.642 505.951 434.094 506.53 433.448 506.934C432.802 507.338 432.077 507.553 431.339 507.559L431.287 507.47Z" fill="white"/>
<path opacity="0.2" d="M431.287 507.47H398.221C397.179 507.467 396.171 507.047 395.374 506.284C394.578 505.522 394.043 504.466 393.865 503.301L388.882 470.656C388.782 470.007 388.796 469.343 388.923 468.7C389.05 468.057 389.287 467.449 389.621 466.91C389.955 466.372 390.379 465.913 390.87 465.56C391.36 465.207 391.907 464.968 392.479 464.855C392.736 464.832 392.993 464.832 393.25 464.855H418.246C419.1 464.855 419.936 465.135 420.653 465.662C421.37 466.188 421.938 466.939 422.288 467.822L435.368 500.467C435.667 501.232 435.794 502.069 435.738 502.904C435.681 503.738 435.442 504.543 435.042 505.247C434.642 505.951 434.095 506.53 433.448 506.934C432.802 507.338 432.077 507.553 431.339 507.559L431.287 507.47Z" fill="white"/>
<path d="M397.135 464.692H393.211C392.629 464.69 392.053 464.818 391.515 465.069C390.977 465.32 390.488 465.689 390.076 466.155C389.664 466.621 389.337 467.175 389.114 467.784C388.891 468.394 388.777 469.047 388.777 469.707C388.772 469.996 388.794 470.284 388.842 470.568L393.826 503.212C394.004 504.377 394.538 505.433 395.335 506.196C396.131 506.958 397.139 507.378 398.181 507.381H402.105C401.061 507.381 400.05 506.963 399.251 506.2C398.451 505.437 397.915 504.379 397.736 503.212L392.753 470.568C392.556 469.255 392.825 467.908 393.501 466.82C394.178 465.733 395.207 464.994 396.363 464.766C396.618 464.717 396.876 464.693 397.135 464.692V464.692Z" fill="#263238"/>
<path d="M467.074 516.67L437.591 442.656H433.667L463.123 516.67C463.816 518.399 464.172 520.276 464.17 522.175V526.003C464.17 526.96 463.835 527.877 463.239 528.553C462.643 529.229 461.834 529.609 460.991 529.609H464.915C465.332 529.609 465.745 529.516 466.13 529.334C466.515 529.153 466.864 528.887 467.158 528.552C467.452 528.217 467.685 527.819 467.844 527.382C468.002 526.945 468.082 526.476 468.081 526.003V522.175C468.096 520.279 467.752 518.402 467.074 516.67V516.67Z" fill="#263238"/>
<path opacity="0.2" d="M433.694 442.582H364.827L367.535 460.27H440.744L433.694 442.582Z" fill="black"/>
<path d="M532.474 450.358H238.697C237.427 450.385 236.166 450.129 234.984 449.603C233.802 449.077 232.722 448.292 231.808 447.293C230.893 446.294 230.161 445.101 229.653 443.781C229.145 442.461 228.871 441.04 228.848 439.6C228.82 439.106 228.82 438.61 228.848 438.116L247.46 197.35C247.757 194.045 249.111 190.977 251.265 188.727C253.42 186.477 256.226 185.2 259.154 185.138H552.944C555.509 185.086 557.987 186.192 559.834 188.212C561.681 190.232 562.745 193.001 562.793 195.91C562.821 196.404 562.821 196.9 562.793 197.394L544.128 438.161C543.837 441.459 542.49 444.522 540.343 446.77C538.195 449.018 535.395 450.294 532.474 450.358Z" fill="#263238"/>
<path opacity="0.3" d="M532.474 450.358H238.697C237.427 450.385 236.166 450.129 234.984 449.603C233.802 449.077 232.722 448.292 231.808 447.293C230.893 446.294 230.161 445.101 229.653 443.781C229.145 442.461 228.871 441.04 228.848 439.6C228.82 439.106 228.82 438.61 228.848 438.116L247.46 197.35C247.757 194.045 249.111 190.977 251.265 188.727C253.42 186.477 256.226 185.2 259.154 185.138H552.944C555.509 185.086 557.987 186.192 559.834 188.212C561.681 190.232 562.745 193.001 562.793 195.91C562.821 196.404 562.821 196.9 562.793 197.394L544.128 438.161C543.837 441.459 542.49 444.522 540.343 446.77C538.195 449.018 535.395 450.294 532.474 450.358Z" fill="white"/>
<path d="M230.901 412.134L228.9 438.16C228.613 441.053 229.35 443.956 230.949 446.232C232.549 448.508 234.879 449.97 237.428 450.298C237.864 450.33 238.301 450.33 238.736 450.298H532.474C535.402 450.241 538.21 448.966 540.363 446.715C542.517 444.463 543.866 441.392 544.154 438.086L546.168 412.06L230.901 412.134Z" fill="#407BFF"/>
<path opacity="0.7" d="M230.901 412.134L228.9 438.16C228.613 441.053 229.35 443.956 230.949 446.232C232.549 448.508 234.879 449.97 237.428 450.298C237.864 450.33 238.301 450.33 238.736 450.298H532.474C535.402 450.241 538.21 448.966 540.363 446.715C542.517 444.463 543.866 441.392 544.154 438.086L546.168 412.06L230.901 412.134Z" fill="white"/>
<path d="M535.796 404.759H242.398C241.709 404.777 241.024 404.64 240.381 404.356C239.739 404.072 239.152 403.647 238.655 403.105C238.158 402.564 237.76 401.915 237.484 401.199C237.209 400.482 237.061 399.71 237.049 398.928C237.036 398.671 237.036 398.413 237.049 398.156L252.444 199.115C252.617 197.332 253.354 195.681 254.518 194.467C255.682 193.253 257.194 192.559 258.775 192.512H552.172C552.861 192.497 553.547 192.635 554.188 192.921C554.83 193.207 555.416 193.634 555.912 194.177C556.408 194.72 556.804 195.369 557.078 196.087C557.352 196.805 557.499 197.577 557.509 198.359C557.528 198.61 557.528 198.864 557.509 199.115L542.14 398.156C541.966 399.942 541.227 401.595 540.061 402.809C538.894 404.023 537.379 404.716 535.796 404.759V404.759Z" fill="#407BFF"/>
<path opacity="0.8" d="M535.796 404.759H242.398C241.709 404.777 241.024 404.64 240.381 404.356C239.739 404.072 239.152 403.647 238.655 403.105C238.158 402.564 237.76 401.915 237.484 401.199C237.209 400.482 237.061 399.71 237.049 398.928C237.036 398.671 237.036 398.413 237.049 398.156L252.444 199.115C252.617 197.332 253.354 195.681 254.518 194.467C255.682 193.253 257.194 192.559 258.775 192.512H552.172C552.861 192.497 553.547 192.635 554.188 192.921C554.83 193.207 555.416 193.634 555.912 194.177C556.408 194.72 556.804 195.369 557.078 196.087C557.352 196.805 557.499 197.577 557.509 198.359C557.528 198.61 557.528 198.864 557.509 199.115L542.14 398.156C541.966 399.942 541.227 401.595 540.061 402.809C538.894 404.023 537.379 404.716 535.796 404.759V404.759Z" fill="#407BFF"/>
<path opacity="0.8" d="M535.796 404.759H242.398C241.709 404.777 241.024 404.64 240.381 404.356C239.739 404.072 239.152 403.647 238.655 403.105C238.158 402.564 237.76 401.915 237.484 401.199C237.209 400.482 237.061 399.71 237.049 398.928C237.036 398.671 237.036 398.413 237.049 398.156L252.444 199.115C252.617 197.332 253.354 195.681 254.518 194.467C255.682 193.253 257.194 192.559 258.775 192.512H552.172C552.861 192.497 553.547 192.635 554.188 192.921C554.83 193.207 555.416 193.634 555.912 194.177C556.408 194.72 556.804 195.369 557.078 196.087C557.352 196.805 557.499 197.577 557.509 198.359C557.528 198.61 557.528 198.864 557.509 199.115L542.14 398.156C541.966 399.942 541.227 401.595 540.061 402.809C538.894 404.023 537.379 404.716 535.796 404.759V404.759Z" fill="white"/>
<g opacity="0.5">
<path d="M324.619 404.774H297.818L337.595 192.512H364.383L324.619 404.774Z" fill="white"/>
<path d="M341.571 404.774H334.717L374.494 192.512H381.347L341.571 404.774Z" fill="white"/>
<path d="M441.371 404.774H436.872L476.648 192.512H481.135L441.371 404.774Z" fill="white"/>
<path d="M458.336 404.774H451.482L491.246 192.512H498.1L458.336 404.774Z" fill="white"/>
</g>
<path d="M559.431 185.167H552.891C554.161 185.14 555.422 185.396 556.605 185.922C557.787 186.448 558.866 187.233 559.78 188.232C560.695 189.231 561.427 190.424 561.935 191.744C562.443 193.064 562.717 194.485 562.741 195.925C562.768 196.419 562.768 196.915 562.741 197.409L544.128 438.16C543.839 441.467 542.49 444.537 540.337 446.789C538.183 449.04 535.375 450.316 532.447 450.372H538.987C541.915 450.313 544.721 449.036 546.874 446.785C549.027 444.534 550.377 441.465 550.668 438.16L569.228 197.35C569.368 195.917 569.258 194.468 568.904 193.084C568.549 191.7 567.958 190.408 567.163 189.284C566.369 188.159 565.387 187.224 564.273 186.53C563.16 185.836 561.937 185.398 560.674 185.241C560.262 185.179 559.847 185.155 559.431 185.167V185.167Z" fill="#263238"/>
<path opacity="0.6" d="M559.431 185.167H552.891C554.161 185.14 555.422 185.396 556.605 185.922C557.787 186.448 558.866 187.233 559.78 188.232C560.695 189.231 561.427 190.424 561.935 191.744C562.443 193.064 562.717 194.485 562.741 195.925C562.768 196.419 562.768 196.915 562.741 197.409L544.128 438.16C543.839 441.467 542.49 444.537 540.337 446.789C538.183 449.04 535.375 450.316 532.447 450.372H538.987C541.915 450.313 544.721 449.036 546.874 446.785C549.027 444.534 550.377 441.465 550.668 438.16L569.228 197.35C569.368 195.917 569.258 194.468 568.904 193.084C568.549 191.7 567.958 190.408 567.163 189.284C566.369 188.159 565.387 187.224 564.273 186.53C563.16 185.836 561.937 185.398 560.674 185.241C560.262 185.179 559.847 185.155 559.431 185.167V185.167Z" fill="white"/>
<path d="M403.701 330.449C403.091 337.211 400.319 343.486 395.909 348.087C391.499 352.688 385.755 355.298 379.765 355.422C376.948 355.475 374.153 354.847 371.567 353.58C368.98 352.313 366.661 350.436 364.763 348.074C362.865 345.712 361.432 342.919 360.559 339.88C359.686 336.841 359.393 333.626 359.7 330.449C360.31 323.687 363.082 317.413 367.492 312.811C371.902 308.21 377.645 305.601 383.636 305.476L384.63 292.715C366.253 292.715 350.06 309.601 348.451 330.449C346.842 351.297 360.432 368.183 378.81 368.183C397.187 368.183 413.328 351.282 414.95 330.449H403.701Z" fill="#407BFF"/>
<path d="M418.9 324.959C420.509 304.111 406.919 287.225 388.541 287.225L387.56 299.986C390.38 299.927 393.179 300.55 395.769 301.814C398.36 303.079 400.683 304.955 402.585 307.318C404.486 309.681 405.921 312.477 406.795 315.519C407.668 318.561 407.96 321.779 407.651 324.959H418.9Z" fill="#407BFF"/>
<path opacity="0.3" d="M418.9 324.959C420.509 304.111 406.919 287.225 388.541 287.225L387.56 299.986C390.38 299.927 393.179 300.55 395.769 301.814C398.36 303.079 400.683 304.955 402.585 307.318C404.486 309.681 405.921 312.477 406.795 315.519C407.668 318.561 407.96 321.779 407.651 324.959H418.9Z" fill="black"/>
<path d="M391.34 330.449C391.063 333.527 389.801 336.383 387.793 338.477C385.786 340.571 383.172 341.759 380.445 341.815C379.161 341.843 377.886 341.56 376.706 340.985C375.526 340.41 374.468 339.556 373.601 338.481C372.735 337.405 372.081 336.133 371.682 334.748C371.283 333.363 371.149 331.897 371.289 330.449C371.555 327.358 372.813 324.486 374.825 322.379C376.836 320.272 379.46 319.078 382.198 319.024L382.642 313.207C378.524 313.314 374.583 315.127 371.562 318.303C368.54 321.479 366.648 325.799 366.24 330.449C366.03 332.636 366.232 334.849 366.835 336.94C367.437 339.031 368.425 340.953 369.733 342.577C371.041 344.201 372.639 345.491 374.421 346.36C376.202 347.229 378.127 347.657 380.065 347.617C384.173 347.514 388.105 345.713 391.124 342.551C394.142 339.389 396.038 335.086 396.455 330.449H391.34Z" fill="#407BFF"/>
<path opacity="0.3" d="M391.34 330.449C391.063 333.527 389.801 336.383 387.793 338.477C385.786 340.571 383.172 341.759 380.445 341.815C379.161 341.843 377.886 341.56 376.706 340.985C375.526 340.41 374.468 339.556 373.601 338.481C372.735 337.405 372.081 336.133 371.682 334.748C371.283 333.363 371.149 331.897 371.289 330.449C371.555 327.358 372.813 324.486 374.825 322.379C376.836 320.272 379.46 319.078 382.198 319.024L382.642 313.207C378.524 313.314 374.583 315.127 371.562 318.303C368.54 321.479 366.648 325.799 366.24 330.449C366.03 332.636 366.232 334.849 366.835 336.94C367.437 339.031 368.425 340.953 369.733 342.577C371.041 344.201 372.639 345.491 374.421 346.36C376.202 347.229 378.127 347.657 380.065 347.617C384.173 347.514 388.105 345.713 391.124 342.551C394.142 339.389 396.038 335.086 396.455 330.449H391.34Z" fill="black"/>
<path d="M398.26 327.927C398.47 325.74 398.267 323.527 397.665 321.436C397.063 319.345 396.074 317.423 394.766 315.799C393.458 314.175 391.861 312.885 390.079 312.016C388.297 311.147 386.373 310.718 384.434 310.759L383.99 316.56C385.274 316.533 386.548 316.816 387.728 317.391C388.908 317.966 389.966 318.82 390.833 319.895C391.699 320.971 392.353 322.243 392.752 323.628C393.151 325.013 393.285 326.478 393.146 327.927H398.26Z" fill="#407BFF"/>
<path d="M463.032 350.095H436.61C436.379 350.099 436.15 350.047 435.939 349.943C435.727 349.838 435.537 349.685 435.381 349.491C435.225 349.298 435.107 349.069 435.035 348.82C434.963 348.571 434.938 348.308 434.962 348.047V348.047C435.013 347.494 435.241 346.98 435.602 346.603C435.963 346.226 436.433 346.011 436.924 346H463.398C463.629 345.996 463.857 346.048 464.068 346.152C464.28 346.256 464.469 346.411 464.624 346.604C464.778 346.798 464.895 347.027 464.966 347.276C465.036 347.525 465.059 347.788 465.033 348.047V348.047C464.984 348.61 464.752 349.132 464.382 349.511C464.012 349.889 463.53 350.098 463.032 350.095V350.095Z" fill="#263238"/>
<path d="M455.799 358.152H435.983C435.752 358.156 435.524 358.104 435.312 358C435.101 357.896 434.912 357.742 434.757 357.548C434.602 357.354 434.486 357.125 434.415 356.876C434.345 356.627 434.322 356.364 434.348 356.105V356.105C434.396 355.549 434.622 355.034 434.984 354.656C435.346 354.279 435.818 354.065 436.31 354.057H456.113C456.349 354.044 456.584 354.09 456.803 354.191C457.022 354.292 457.218 354.447 457.379 354.643C457.54 354.84 457.661 355.074 457.733 355.329C457.806 355.584 457.829 355.853 457.8 356.119V356.119C457.748 356.68 457.515 357.198 457.145 357.573C456.775 357.949 456.295 358.155 455.799 358.152V358.152Z" fill="#263238"/>
<path d="M301.769 353.478H328.23C328.719 353.47 329.189 353.259 329.551 352.885C329.912 352.51 330.14 351.998 330.192 351.445V351.445C330.22 351.185 330.198 350.921 330.128 350.671C330.059 350.421 329.942 350.191 329.787 349.997C329.632 349.803 329.442 349.649 329.229 349.545C329.017 349.442 328.788 349.392 328.557 349.398H302.148C301.656 349.406 301.185 349.619 300.823 349.997C300.461 350.375 300.234 350.89 300.186 351.445V351.445C300.16 351.699 300.182 351.957 300.25 352.201C300.317 352.445 300.429 352.67 300.579 352.861C300.728 353.053 300.911 353.207 301.116 353.313C301.321 353.42 301.543 353.476 301.769 353.478V353.478Z" fill="#263238"/>
<path d="M307.785 361.535H327.602C328.093 361.524 328.563 361.31 328.924 360.932C329.285 360.555 329.513 360.042 329.564 359.488V359.488C329.59 359.227 329.567 358.962 329.495 358.712C329.424 358.463 329.306 358.233 329.15 358.039C328.994 357.845 328.803 357.691 328.59 357.588C328.377 357.484 328.147 357.434 327.916 357.44H308.112C307.619 357.448 307.146 357.661 306.782 358.038C306.418 358.416 306.189 358.931 306.137 359.488V359.488C306.113 359.748 306.138 360.012 306.21 360.26C306.283 360.509 306.4 360.738 306.556 360.931C306.712 361.125 306.902 361.279 307.114 361.383C307.326 361.487 307.555 361.539 307.785 361.535V361.535Z" fill="#263238"/>
<path d="M430.005 349.22H420.993L400.549 323.816H393.969L394.139 321.665H401.504L421.934 347.083H430.175L430.005 349.22Z" fill="#263238"/>
<path d="M333.422 353.686H342.434L362.878 328.268H369.458L369.301 326.131H361.924L341.493 351.534H333.252L333.422 353.686Z" fill="#263238"/>
<path opacity="0.1" d="M322.461 223.361H274.601L275.399 213.004H323.259L322.461 223.361Z" fill="black"/>
<path opacity="0.1" d="M320.865 244.061H273.006L273.804 233.703H321.663L320.865 244.061Z" fill="black"/>
<path opacity="0.1" d="M319.27 264.76H271.41L272.208 254.403H320.068L319.27 264.76Z" fill="black"/>
<path opacity="0.2" d="M321.663 233.703H273.804L274.601 223.361H322.461L321.663 233.703Z" fill="white"/>
<path opacity="0.2" d="M320.067 254.403H272.208L273.006 244.061H320.865L320.067 254.403Z" fill="white"/>
<path d="M301.703 263.573C295.294 263.573 294.221 251.346 293.097 238.348C292.05 226.477 290.965 214.057 285.353 214.057C280.762 214.057 275.504 231.596 273.869 238.348L272.94 238.155C273.996 233.931 275.254 229.775 276.707 225.706C279.781 217.248 282.724 212.959 285.445 212.959C291.854 212.959 292.927 225.201 294.051 238.185C295.098 250.055 296.183 262.475 301.795 262.475C306.268 262.475 311.369 245.811 313.148 238.734C313.185 238.594 313.264 238.473 313.372 238.394C313.48 238.315 313.61 238.283 313.737 238.303V238.303C313.798 238.317 313.855 238.345 313.906 238.385C313.956 238.425 313.999 238.477 314.031 238.537C314.063 238.597 314.084 238.664 314.092 238.734C314.099 238.803 314.094 238.874 314.077 238.941C313.047 242.967 311.833 246.929 310.441 250.812C307.38 259.285 304.424 263.573 301.703 263.573Z" fill="#407BFF"/>
<path d="M279.624 257.934C274.758 257.934 273.084 240.514 272.914 238.526L273.882 238.333C274.327 243.482 276.263 256.836 279.703 256.836C283.143 256.836 285.144 248.868 287.001 241.167C289.068 232.65 291.017 224.607 295.32 224.607C298.943 224.607 299.532 231.27 300.147 238.333C300.696 244.639 301.272 251.153 304.071 251.153C306.87 251.153 308.466 244.639 309.996 238.333C311.696 231.27 313.305 224.607 316.928 224.607C318.524 224.607 319.78 226.907 320.761 231.626C321.168 233.659 321.482 235.714 321.703 237.784C321.714 237.932 321.677 238.08 321.597 238.199C321.517 238.317 321.4 238.396 321.271 238.422V238.422C321.211 238.437 321.15 238.437 321.09 238.423C321.03 238.409 320.973 238.381 320.924 238.34C320.875 238.3 320.833 238.248 320.803 238.187C320.772 238.127 320.754 238.061 320.748 237.992C320.251 233.036 318.825 225.706 316.824 225.706C313.998 225.706 312.429 232.22 310.899 238.526C309.198 245.589 307.576 252.251 303.953 252.251C300.33 252.251 299.754 245.589 299.14 238.526C298.577 232.22 298.015 225.706 295.216 225.706C291.697 225.706 289.774 233.674 287.917 241.375C285.876 249.892 283.928 257.934 279.624 257.934Z" fill="#407BFF"/>
<g opacity="0.5">
<path d="M279.624 257.934C274.758 257.934 273.084 240.514 272.914 238.526L273.882 238.333C274.327 243.482 276.263 256.836 279.703 256.836C283.143 256.836 285.144 248.868 287.001 241.167C289.068 232.65 291.017 224.607 295.32 224.607C298.943 224.607 299.532 231.27 300.147 238.333C300.696 244.639 301.272 251.153 304.071 251.153C306.87 251.153 308.466 244.639 309.996 238.333C311.696 231.27 313.305 224.607 316.928 224.607C318.524 224.607 319.78 226.907 320.761 231.626C321.168 233.659 321.482 235.714 321.703 237.784C321.714 237.932 321.677 238.08 321.597 238.199C321.517 238.317 321.4 238.396 321.271 238.422V238.422C321.211 238.437 321.15 238.437 321.09 238.423C321.03 238.409 320.973 238.381 320.924 238.34C320.875 238.3 320.833 238.248 320.803 238.187C320.772 238.127 320.754 238.061 320.748 237.992C320.251 233.036 318.825 225.706 316.824 225.706C313.998 225.706 312.429 232.22 310.899 238.526C309.198 245.589 307.576 252.251 303.953 252.251C300.33 252.251 299.754 245.589 299.14 238.526C298.577 232.22 298.015 225.706 295.216 225.706C291.697 225.706 289.774 233.674 287.917 241.375C285.876 249.892 283.928 257.934 279.624 257.934Z" fill="black"/>
</g>
<path d="M319.584 265.799H270.756L274.824 213.672C274.837 213.508 274.903 213.355 275.009 213.242C275.115 213.13 275.254 213.066 275.399 213.063V213.063C275.468 213.06 275.537 213.075 275.6 213.105C275.664 213.135 275.72 213.181 275.767 213.239C275.813 213.297 275.847 213.366 275.867 213.441C275.887 213.515 275.893 213.594 275.883 213.672L271.959 264.656H319.675C319.743 264.656 319.811 264.672 319.873 264.703C319.936 264.734 319.991 264.78 320.037 264.837C320.083 264.895 320.117 264.962 320.138 265.036C320.159 265.11 320.166 265.188 320.159 265.264V265.264C320.132 265.415 320.06 265.55 319.955 265.648C319.85 265.745 319.719 265.798 319.584 265.799V265.799Z" fill="#263238"/>
<path d="M429.482 215.259H352.31L351.002 232.487L350.884 233.97L349.668 249.773L349.563 251.257L348.255 268.484H440.613L441.921 251.257L442.026 249.773L443.255 233.97L443.36 232.487L444.668 215.259H429.482ZM414.178 216.743H428.108L426.892 232.546H412.962L414.178 216.743ZM425.558 249.773H411.641L412.857 233.97H426.787L425.558 249.773ZM367.299 233.97H381.23L380.013 249.773H366.083L367.299 233.97ZM382.485 233.97H396.416L395.199 249.773H381.269L382.485 233.97ZM397.671 233.97H411.601L410.385 249.773H396.455L397.671 233.97ZM398.979 216.743H412.896L411.68 232.546H397.789L398.979 216.743ZM383.793 216.743H397.724L396.494 232.546H382.603L383.793 216.743ZM368.607 216.743H382.538L381.321 232.546H367.417L368.607 216.743ZM353.422 216.743H367.352L366.135 232.546H352.231L353.422 216.743ZM352.114 233.97H366.031L364.814 249.773H350.897L352.114 233.97ZM363.493 267.001H349.576L350.793 251.198H364.723L363.493 267.001ZM378.666 267.001H364.762L365.978 251.198H379.909L378.666 267.001ZM393.852 267.001H379.948L381.164 251.198H395.081L393.852 267.001ZM409.038 267.001H395.121L396.35 251.198H410.267L409.038 267.001ZM424.224 267.001H410.307L411.523 251.198H425.453L424.224 267.001ZM439.41 267.001H425.492L426.709 251.198H440.639L439.41 267.001ZM440.718 249.773H426.827L428.043 233.97H441.96L440.718 249.773ZM428.121 232.546L429.338 216.743H443.268L442.104 232.487L428.121 232.546Z" fill="#407BFF"/>
<path d="M367.43 267.653H357.555L359.125 247.369H368.987L367.43 267.653Z" fill="#407BFF"/>
<path d="M382.616 267.654H372.741L374.729 241.82H384.604L382.616 267.654Z" fill="#263238"/>
<path d="M398.534 267.654H388.672L390.66 241.82H400.536L398.534 267.654Z" fill="#407BFF"/>
<path d="M412.975 267.653H403.099L406.199 227.59H416.075L412.975 267.653Z" fill="#263238"/>
<path d="M428.161 267.653H418.285L421.607 224.593H431.483L428.161 267.653Z" fill="#407BFF"/>
<path opacity="0.2" d="M367.43 267.653H357.555L359.125 247.369H368.987L367.43 267.653Z" fill="black"/>
<path opacity="0.2" d="M398.534 267.654H388.672L390.66 241.82H400.536L398.534 267.654Z" fill="black"/>
<path opacity="0.2" d="M428.161 267.653H418.285L421.607 224.593H431.483L428.161 267.653Z" fill="black"/>
<path d="M503.92 404.774C508.668 362.886 513.364 317.926 513.364 317.926L475.432 317.659C475.432 317.659 471.926 364.548 469.167 404.774H503.92Z" fill="#263238"/>
<path opacity="0.6" d="M505.254 404.774C506.929 389.194 508.59 373.183 510.029 359.206C510.369 353.374 510.683 347.706 510.997 342.335C508.106 334.752 502.442 330.568 498.479 348.077C494.534 366.691 494.368 386.078 497.995 404.774H505.254Z" fill="black"/>
<path d="M535.574 404.774C533.834 363.598 531.95 317.05 531.95 317.05H495.326C495.326 317.05 498.505 365.097 501.866 404.774H535.574Z" fill="#263238"/>
<path d="M471.848 219.073C469.232 225.869 466.315 232.961 463.215 239.52C461.672 242.844 460.011 246.034 458.284 249.017C456.769 251.72 454.978 254.21 452.947 256.436C452.599 256.803 452.228 257.14 451.836 257.445C451.661 257.552 451.495 257.676 451.339 257.816C451.339 257.816 451.522 257.905 451.339 257.934C451.073 257.937 450.81 257.876 450.567 257.756C449.508 257.253 448.525 256.567 447.65 255.723C446.5 254.667 445.412 253.527 444.393 252.311C439.962 246.745 435.925 240.791 432.32 234.505L425.597 238.051C427.876 246.079 431.157 253.694 435.342 260.665C436.499 262.548 437.78 264.328 439.174 265.992C440.787 267.935 442.642 269.6 444.681 270.933C445.977 271.764 447.374 272.374 448.827 272.743C450.548 273.172 452.328 273.202 454.059 272.832C456.825 272.134 459.412 270.722 461.619 268.707C464.831 265.721 467.673 262.257 470.069 258.409C472.294 255.001 474.355 251.46 476.243 247.8C478.061 244.179 479.775 240.544 481.318 236.819C482.861 233.095 484.353 229.4 485.726 225.453L471.848 219.073Z" fill="#CE7A63"/>
<path d="M454.281 247.948L471.063 262.148C471.063 262.148 471.704 261.347 472.764 259.952C473.548 258.929 474.542 257.578 475.707 255.976C482.247 246.969 491.756 230.528 491.834 222.471C491.952 210.467 480.952 208.701 468.63 220.987C463.307 226.284 460.534 235.069 457.826 240.529C456.924 242.324 456.178 243.897 455.589 245.114C454.752 246.895 454.281 247.948 454.281 247.948Z" fill="#407BFF"/>
<path opacity="0.3" d="M491.939 223.866C488.146 221.017 485.399 228.317 477.891 234.594C474.555 237.368 467.231 255.441 467.832 259.418L471.063 262.148C471.063 262.148 492.03 235.825 491.939 223.866Z" fill="black"/>
<path d="M427.467 240.944L417.867 232.323L427.755 225.112C427.755 225.112 435.603 234.816 433.471 238.155L427.467 240.944Z" fill="#CE7A63"/>
<path d="M454.282 246.093L472.62 261.659L470.331 264.359L452.882 249.744L454.282 246.093Z" fill="#407BFF"/>
<path opacity="0.2" d="M454.282 246.093L472.62 261.659L470.331 264.359L452.882 249.744L454.282 246.093Z" fill="black"/>
<path d="M475.235 317.659H532.016C532.408 311.916 531.244 293.19 532.107 269.36C532.647 251.698 534.538 234.123 537.758 216.832C538.006 215.526 538.268 214.25 538.543 212.945C538.543 212.945 535.665 212.277 531.545 211.594C528.118 211.03 523.815 210.452 519.616 210.214C511.578 209.702 503.521 209.702 495.483 210.214C491.769 210.615 488.145 211.312 485.255 211.936C481.566 212.781 479.382 213.508 479.382 213.508C479.382 213.508 465.399 249.936 475.235 317.659Z" fill="#407BFF"/>
<path d="M417.278 219.933L425.296 216.936L427.755 225.112L417.867 232.323L417.278 219.933Z" fill="#CE7A63"/>
<path d="M544.952 227.931C546.548 231.656 547.83 235.202 549.138 238.897C550.446 242.592 551.597 246.316 552.669 250.144C553.763 254.044 554.676 258.006 555.403 262.015C556.228 266.368 556.614 270.813 556.554 275.265C556.476 278.089 555.981 280.878 555.089 283.516C554.475 285.259 553.589 286.862 552.473 288.249C551.209 289.793 549.653 290.99 547.921 291.751C545.173 292.839 542.204 292.994 539.38 292.196C537.301 291.652 535.289 290.82 533.389 289.718C530.08 287.809 526.962 285.501 524.089 282.833C522.69 281.572 521.356 280.251 520.074 278.871C518.792 277.491 517.549 276.141 516.294 274.583L521.042 268.128C526.375 271.821 532.024 274.894 537.902 277.298C539.08 277.723 540.295 278.007 541.525 278.144C542.545 278.248 543.173 277.922 542.898 277.877C542.724 277.905 542.557 277.982 542.414 278.1C542.284 278.189 542.297 278.174 542.349 277.936C542.515 276.959 542.577 275.963 542.532 274.969C542.401 271.803 541.962 268.663 541.224 265.606C540.505 262.267 539.563 258.854 538.517 255.456C536.463 248.675 533.978 241.701 531.453 235.187L544.952 227.931Z" fill="#CE7A63"/>
<path d="M523.409 270.22L514.45 260.783L509.662 273.025C509.662 273.025 519.328 280.355 521.905 277.476L523.409 270.22Z" fill="#CE7A63"/>
<path d="M503.554 262L502.167 271.452L509.662 272.966L514.449 260.783L503.554 262Z" fill="#CE7A63"/>
<path opacity="0.3" d="M532.108 269.375C532.647 251.708 534.538 234.128 537.758 216.832C533.965 216.461 527.477 216.832 526.405 223.836C525.241 231.314 526.706 248.883 532.108 269.375Z" fill="black"/>
<path d="M524.992 233.629C527.307 241.825 530.05 249.856 533.206 257.682C533.886 259.448 534.514 261.006 535.037 262.282C535.94 264.508 536.515 265.858 536.515 265.858L557.757 253.572C557.757 253.572 557.522 252.563 557.103 250.871C556.789 249.595 556.358 247.904 555.795 246.004C552.669 234.638 546.182 214.325 539.262 212.9C528.955 210.778 521.212 219.31 524.992 233.629Z" fill="#407BFF"/>
<path d="M505.712 219.266C519.721 218.835 521.827 211.06 521.918 210.719L522.01 210.378L519.616 210.214C511.578 209.702 503.521 209.702 495.483 210.214L494.175 210.378C493.589 210.931 493.136 211.646 492.861 212.453C492.587 213.261 492.499 214.135 492.606 214.992C493.221 217.708 496.53 218.613 499.368 218.999L505.712 219.266Z" fill="white"/>
<path d="M557.26 249.239L534.043 262.712L536.672 266.362L558.254 253.646L557.26 249.239Z" fill="#407BFF"/>
<path opacity="0.2" d="M557.26 249.239L534.043 262.712L536.672 266.362L558.254 253.646L557.26 249.239Z" fill="black"/>
<path d="M509.178 227.486L502.272 220.408L493.888 227.026C493.888 227.026 485.15 217.633 491.638 210.704C492.946 210.511 494.175 210.333 495.483 210.185C503.521 209.672 511.578 209.672 519.616 210.185C521.264 210.274 522.912 210.437 524.534 210.615C524.05 213.301 521.578 222.04 509.178 227.486Z" fill="#407BFF"/>
<path opacity="0.2" d="M509.178 227.486L502.272 220.408L493.888 227.026C493.888 227.026 485.15 217.633 491.638 210.704C492.946 210.511 494.175 210.333 495.483 210.185C503.521 209.672 511.578 209.672 519.616 210.185C521.264 210.274 522.912 210.437 524.534 210.615C524.05 213.301 521.578 222.04 509.178 227.486Z" fill="black"/>
<path d="M505.254 217.663C518.753 217.381 520.545 210.244 520.545 210.244C515.313 204.309 517.301 188.298 519.093 179.469L512.631 185.553L503.841 193.833C504.103 195.163 504.291 196.511 504.404 197.869C504.875 203.27 503.645 208.256 496.634 210.081C496.634 210.081 488.302 216.328 500.663 217.5L505.254 217.663Z" fill="#CE7A63"/>
<path opacity="0.2" d="M503.841 193.877C504.103 195.208 504.291 196.556 504.404 197.913C507.687 197.157 512.069 193.195 512.526 189.396C512.687 188.138 512.722 186.864 512.631 185.598L503.841 193.877Z" fill="black"/>
<path d="M521.761 166.827C519.511 178.535 518.727 185.509 512.605 190.85C510.64 192.617 508.286 193.739 505.799 194.096C503.312 194.453 500.786 194.031 498.495 192.875C496.204 191.72 494.235 189.875 492.803 187.54C491.371 185.206 490.529 182.471 490.369 179.633C489.571 168.726 493.378 151.44 504.234 148.101C506.571 147.301 509.053 147.214 511.429 147.849C513.805 148.484 515.992 149.818 517.769 151.716C519.547 153.615 520.851 156.011 521.552 158.664C522.253 161.317 522.325 164.133 521.761 166.827V166.827Z" fill="#CE7A63"/>
<path d="M505.477 167.999C505.346 168.949 504.784 169.676 504.234 169.602C503.685 169.528 503.332 168.682 503.463 167.717C503.593 166.753 504.143 166.041 504.705 166.115C505.268 166.189 505.608 167.035 505.477 167.999Z" fill="#263238"/>
<path d="M495.863 166.694C495.732 167.658 495.169 168.37 494.555 168.296C493.94 168.222 493.652 167.391 493.783 166.427C493.914 165.462 494.463 164.75 495.026 164.824C495.588 164.898 495.993 165.729 495.863 166.694Z" fill="#263238"/>
<path d="M498.845 167.584C497.413 170.396 495.653 172.976 493.613 175.255C494.921 177.036 497.537 176.665 497.537 176.665L498.845 167.584Z" fill="#BA4D3C"/>
<path d="M508.917 164.883C509.004 164.889 509.091 164.863 509.165 164.809C509.28 164.734 509.364 164.612 509.401 164.468C509.437 164.324 509.423 164.17 509.361 164.038C508.998 163.229 508.464 162.535 507.806 162.017C507.149 161.499 506.389 161.174 505.594 161.07C505.461 161.066 505.332 161.121 505.234 161.224C505.137 161.326 505.078 161.468 505.071 161.619C505.068 161.694 505.078 161.769 505.1 161.84C505.123 161.911 505.158 161.976 505.203 162.032C505.248 162.087 505.302 162.131 505.363 162.163C505.423 162.194 505.489 162.211 505.555 162.212C506.169 162.306 506.754 162.564 507.264 162.963C507.773 163.363 508.191 163.894 508.485 164.512C508.518 164.615 508.576 164.705 508.652 164.77C508.729 164.836 508.821 164.875 508.917 164.883V164.883Z" fill="#263238"/>
<path d="M492.239 162.405C492.322 162.404 492.403 162.38 492.475 162.336C492.548 162.292 492.611 162.229 492.658 162.153C493.005 161.541 493.47 161.026 494.019 160.648C494.567 160.27 495.184 160.039 495.823 159.972C495.891 159.974 495.958 159.96 496.021 159.932C496.083 159.904 496.14 159.861 496.188 159.807C496.236 159.753 496.273 159.688 496.298 159.617C496.323 159.546 496.335 159.47 496.334 159.393C496.33 159.242 496.275 159.099 496.18 158.993C496.084 158.888 495.956 158.829 495.823 158.829V158.829C495.019 158.897 494.239 159.174 493.545 159.64C492.85 160.106 492.26 160.748 491.821 161.515C491.784 161.576 491.758 161.645 491.744 161.718C491.731 161.791 491.73 161.866 491.742 161.939C491.754 162.012 491.779 162.082 491.815 162.144C491.851 162.206 491.897 162.26 491.952 162.301C492.035 162.371 492.136 162.407 492.239 162.405V162.405Z" fill="#263238"/>
<path d="M494.738 179.84C494.738 179.84 497.89 178.92 506.771 178.653C505.803 181.71 503.92 184.247 499.368 184.336C498.8 184.413 498.223 184.354 497.675 184.166C497.127 183.977 496.62 183.661 496.185 183.239C495.75 182.816 495.397 182.296 495.148 181.711C494.899 181.126 494.759 180.489 494.738 179.84Z" fill="#263238"/>
<path d="M501.422 181.888C499.673 181.823 497.951 182.389 496.504 183.505C497.36 184.109 498.362 184.395 499.368 184.322C501.114 184.394 502.834 183.827 504.273 182.704C503.421 182.1 502.424 181.815 501.422 181.888V181.888Z" fill="#A02724"/>
<path d="M495.143 179.751C495.236 180.124 495.419 180.46 495.671 180.722C495.923 180.984 496.234 181.162 496.569 181.235C499.205 181.154 501.83 180.822 504.417 180.241C504.828 180.197 505.224 180.039 505.569 179.78C505.913 179.521 506.196 179.17 506.392 178.757C502.625 178.753 498.864 179.085 495.143 179.751Z" fill="white"/>
<path d="M515.862 158.073C513.952 155.847 513.403 153.146 505.503 153.947C497.602 154.749 489.27 161.649 489.427 153.947C489.427 152.167 490.814 154.244 493.417 150.386C493.417 150.386 486.275 154.051 488.512 148.902C490.304 144.748 492.331 151.128 501.474 143.116C510.617 135.103 522.65 142.329 526.117 153.102C527.915 153.76 529.444 155.133 530.422 156.967C531.4 158.802 531.761 160.975 531.44 163.088C530.629 169.973 522.114 175.048 521.238 183.431C521.107 184.618 522.415 186.547 521.369 187.23C520.767 187.616 519.289 185.123 519.289 185.123C519.082 185.592 518.932 186.091 518.844 186.607C518.635 187.719 520.78 190.598 518.936 191.859C517.889 192.572 517.431 190.45 516.804 186.844C516.538 185.245 516.463 183.613 516.581 181.992C517.026 174.751 513.965 178.075 514.083 173.475C514.161 170.284 516.411 164.943 517.785 161.975C518.011 161.51 518.066 160.963 517.939 160.451C517.812 159.94 517.512 159.507 517.104 159.245C516.635 158.937 516.215 158.54 515.862 158.073V158.073Z" fill="#263238"/>
<path d="M524.142 179.054C522.474 181.341 520.166 182.912 517.602 183.505C514.345 184.129 513.678 180.716 515.26 177.407C516.751 174.439 520.244 170.522 523.108 171.472C525.973 172.421 526.247 176.175 524.142 179.054Z" fill="#CE7A63"/>
<path d="M175.265 411.147L137.808 406.2C137.576 406.169 137.351 406.087 137.147 405.958C136.943 405.829 136.764 405.656 136.619 405.448C136.474 405.24 136.366 405.002 136.302 404.747C136.239 404.492 136.22 404.225 136.247 403.962L136.41 402.37L175.634 407.55L175.265 411.147Z" fill="#263238"/>
<path opacity="0.2" d="M175.265 411.147L137.808 406.2C137.576 406.169 137.351 406.087 137.147 405.958C136.943 405.829 136.764 405.656 136.619 405.448C136.474 405.24 136.366 405.002 136.302 404.747C136.239 404.492 136.22 404.225 136.247 403.962L136.41 402.37L175.634 407.55L175.265 411.147Z" fill="white"/>
<path d="M198.594 414.304L168.01 410.265C167.542 410.203 167.114 409.932 166.821 409.513C166.528 409.093 166.395 408.559 166.449 408.027L166.613 406.435L198.963 410.708L198.594 414.304Z" fill="#263238"/>
<path opacity="0.5" d="M198.594 414.304L168.01 410.265C167.542 410.203 167.114 409.932 166.821 409.513C166.528 409.093 166.395 408.559 166.449 408.027L166.613 406.435L198.963 410.708L198.594 414.304Z" fill="white"/>
<path d="M191.565 412.201L194.735 412.62L194.867 411.338L191.697 410.919L191.565 412.201Z" fill="#263238"/>
<path d="M186.613 411.553L189.783 411.972L189.914 410.689L186.744 410.271L186.613 411.553Z" fill="#263238"/>
<path d="M196.841 410.428L198.947 410.695L204.453 378.496L202.348 378.214L196.841 410.428Z" fill="#263238"/>
<path opacity="0.3" d="M196.841 410.428L198.947 410.695L204.453 378.496L202.348 378.214L196.841 410.428Z" fill="white"/>
<path d="M197.613 410.532L160.57 405.635L166.09 373.421L203.133 378.318L197.613 410.532Z" fill="#407BFF"/>
<path opacity="0.5" d="M197.613 410.532L160.57 405.635L166.09 373.421L203.133 378.318L197.613 410.532Z" fill="white"/>
<path d="M121.997 340.005C120.977 342.305 119.852 344.798 118.845 347.231C117.838 349.665 116.817 352.128 115.902 354.65C114.986 357.173 114.084 359.562 113.286 361.981C112.556 364.216 112.001 366.52 111.625 368.866C111.492 369.658 111.43 370.463 111.442 371.269V371.477V371.358C111.258 371.062 112.37 372.531 113.168 373.169C113.966 373.807 114.921 374.46 115.902 375.083C119.826 377.605 124.391 379.846 128.773 382.146L127.295 389.09C124.693 388.862 122.107 388.451 119.551 387.859C116.935 387.291 114.356 386.517 111.834 385.544C110.492 385.028 109.181 384.413 107.91 383.704C106.37 382.883 104.932 381.835 103.633 380.588C102.686 379.652 101.89 378.538 101.278 377.294C101.187 377.101 101.095 376.893 101.017 376.7L100.821 376.196C100.701 375.871 100.596 375.539 100.507 375.201C100.335 374.594 100.199 373.975 100.101 373.347C99.8057 371.352 99.7441 369.321 99.9181 367.308C100.229 364.061 100.798 360.853 101.619 357.722C102.39 354.754 103.28 351.935 104.235 349.16C105.189 346.385 106.223 343.7 107.348 341.059C108.472 338.417 109.571 335.835 110.918 333.165L121.997 340.005Z" fill="#FFB573"/>
<path d="M125.856 382.368L135.273 379.623L136.058 389.239C136.058 389.239 129.701 392.206 125.79 387.562L125.856 382.368Z" fill="#FFB573"/>
<path d="M139.08 381.033L141.081 388.779L136.058 389.239L135.273 379.623L139.08 381.033Z" fill="#FFB573"/>
<path d="M102.024 351.327L115.47 358.879C115.47 358.879 118.923 360.126 125.28 348.596C132.644 335.242 128.616 327.645 119.734 327.289C110.853 326.933 107.374 339.649 102.024 351.327Z" fill="#407BFF"/>
<path opacity="0.5" d="M102.024 351.327L115.47 358.879C115.47 358.879 118.923 360.126 125.28 348.596C132.644 335.242 128.616 327.645 119.734 327.289C110.853 326.933 107.374 339.649 102.024 351.327Z" fill="white"/>
<path opacity="0.2" d="M106.968 354.146L114.659 358.464L118.57 353.226L114.228 340.094L113.024 338.581L110.003 338.091L106.968 354.146Z" fill="black"/>
<path d="M101.919 350.214L116.805 358.85L114.816 361.521L101.122 353.597L101.919 350.214Z" fill="#407BFF"/>
<path d="M142.18 293.146C142.624 293.027 143.161 293.472 143.396 294.229C143.632 294.986 143.462 295.713 143.017 295.876C142.572 296.039 142.036 295.535 141.8 294.793C141.565 294.051 141.748 293.264 142.18 293.146Z" fill="#2E353A"/>
<path d="M144.56 301.218C145.056 301.159 145.535 300.977 145.962 300.684C146.389 300.392 146.755 299.997 147.032 299.526C145.332 298.353 143.775 296.931 142.402 295.297L144.56 301.218Z" fill="#ED893E"/>
<path d="M139.237 291.988C139.317 291.418 139.516 290.877 139.816 290.411C140.116 289.944 140.509 289.564 140.963 289.303C141.05 289.254 141.119 289.173 141.157 289.072C141.196 288.971 141.201 288.858 141.172 288.754C141.139 288.637 141.068 288.54 140.973 288.481C140.877 288.423 140.766 288.409 140.662 288.442C140.074 288.753 139.563 289.225 139.175 289.816C138.787 290.406 138.534 291.097 138.439 291.825V291.825C138.429 291.884 138.43 291.944 138.442 292.002C138.453 292.06 138.475 292.115 138.505 292.163C138.536 292.212 138.575 292.252 138.619 292.284C138.664 292.315 138.714 292.335 138.766 292.344H138.975C139.042 292.315 139.101 292.267 139.147 292.205C139.192 292.143 139.223 292.068 139.237 291.988V291.988Z" fill="#2E353A"/>
<path d="M122.847 328.52C122.39 330.79 122.089 331.874 123.894 332.868C127.606 335.068 131.841 335.864 135.98 335.138C140.257 334.307 141.029 332.571 140.846 331.176C140.699 330.64 140.444 330.151 140.101 329.746C139.758 329.342 139.337 329.034 138.87 328.847C137.922 328.381 137.116 327.606 136.555 326.621C135.994 325.636 135.703 324.485 135.718 323.312C135.51 322.067 135.51 320.788 135.718 319.543L128.184 313.801L122.403 306.5C123.823 313.736 123.974 321.218 122.847 328.52Z" fill="#FFB573"/>
<path d="M146.928 333.595C146.928 333.595 144.089 324.692 139.511 322.704C134.933 320.715 121.199 321.798 121.199 321.798C120.532 324.993 119.658 328.128 118.583 331.176L146.928 333.595Z" fill="#407BFF"/>
<path d="M118.819 296.766C118.914 293.262 120.233 289.944 122.485 287.543C124.737 285.141 127.737 283.853 130.826 283.961C139.681 284.317 144.861 297.226 145.659 306.025C146.535 315.804 138.059 323.98 129.963 319.528C124.561 316.561 123.057 311.248 119.8 302.435C119.112 300.649 118.777 298.714 118.819 296.766V296.766Z" fill="#FFB573"/>
<path opacity="0.2" d="M120.245 325.656C119.748 327.526 119.198 329.366 118.57 331.176L144.73 333.417C144.09 331.653 143.278 329.976 142.311 328.416C136.032 325.523 124.953 325.508 120.245 325.656Z" fill="black"/>
<path d="M206.677 493.893L214.669 489.976L220.817 511.803L212.825 515.735L206.677 493.893Z" fill="#FFB573"/>
<path opacity="0.2" d="M206.677 493.893L214.669 489.976L217.743 500.882L209.659 504.488L206.677 493.893Z" fill="black"/>
<path d="M221.706 507.975C224.1 510.245 228.979 511.892 232.719 512.129C235.597 512.308 235.846 516.047 232.235 516.744C228.625 517.442 222.334 517.1 219.692 517.234C215.401 517.412 213.95 518.213 210.536 518.154C210.13 518.131 209.748 517.928 209.472 517.59C209.196 517.252 209.047 516.804 209.058 516.344L209.777 507.604C209.79 507.417 209.868 507.244 209.993 507.122C210.118 507 210.28 506.939 210.444 506.951L220.202 507.307C220.756 507.329 221.286 507.564 221.706 507.975Z" fill="#407BFF"/>
<path d="M133.677 403.795C133.677 403.795 126.967 412.817 132.369 427.106C138.478 443.294 170.89 436.187 188.613 441.351C191.138 469.944 205.853 499.22 205.853 499.22L218.148 493.76C218.148 493.76 212.825 470.983 208.822 430.637C206.86 410.784 162.453 408.617 162.453 408.617L133.677 403.795Z" fill="#407BFF"/>
<path d="M203.394 496.697L219.064 490.495L220.006 496.994L205.735 502.87L203.394 496.697Z" fill="#407BFF"/>
<path d="M168.837 503.256L177.469 502.796L176.057 525.885L167.437 526.36L168.837 503.256Z" fill="#FFB573"/>
<path d="M178.411 523.466C180.805 525.721 184.833 528.867 188.535 529.475C190.916 529.861 192.708 533.927 188.247 533.927C183.787 533.927 179.091 533.452 176.384 533.348C172.094 533.2 170.668 533.63 167.228 533.63C166.821 533.611 166.437 533.41 166.16 533.071C165.883 532.731 165.736 532.282 165.75 531.82L166.456 523.08C166.473 522.895 166.551 522.725 166.675 522.603C166.799 522.482 166.959 522.419 167.123 522.427L176.881 522.769C177.447 522.792 177.988 523.038 178.411 523.466Z" fill="#407BFF"/>
<path opacity="0.2" d="M168.065 516.002L176.645 516.017L177.469 502.796L168.837 503.271L168.065 516.002Z" fill="black"/>
<path d="M112.122 405.368C112.122 405.368 105.046 421.69 111.926 432.077C118.152 441.558 149.936 442.182 166.116 442.182C164.507 464.543 166.286 510.438 166.286 510.438L179.222 510.23C179.222 510.23 188.378 466.071 190.222 435.178C191.269 418.01 137.405 406.629 137.405 406.629L112.122 405.368Z" fill="#407BFF"/>
<path d="M164.494 507.44L182.27 506.847L181.498 512.871L165.174 513.138L164.494 507.44Z" fill="#407BFF"/>
<path d="M111.86 407.697L157.169 408.736L158.7 341.088C158.416 337.399 156.926 333.963 154.522 331.456C152.119 328.949 148.976 327.553 145.711 327.541H119.224C118.004 327.531 116.795 327.798 115.667 328.325C114.539 328.853 113.515 329.631 112.656 330.614C111.797 331.597 111.12 332.765 110.664 334.049C110.208 335.333 109.984 336.707 110.003 338.091L111.86 407.697Z" fill="#407BFF"/>
<path opacity="0.6" d="M111.86 407.697L157.169 408.736L158.7 341.088C158.416 337.399 156.926 333.963 154.522 331.456C152.119 328.949 148.976 327.553 145.711 327.541H119.224C118.004 327.531 116.795 327.798 115.667 328.325C114.539 328.853 113.515 329.631 112.656 330.614C111.797 331.597 111.12 332.765 110.664 334.049C110.208 335.333 109.984 336.707 110.003 338.091L111.86 407.697Z" fill="white"/>
<path d="M158.033 339.515L158.883 343.314C159.184 344.62 159.497 345.925 159.838 347.231C160.518 349.828 161.146 352.425 161.97 354.962C162.794 357.499 163.526 360.007 164.416 362.381C165.269 364.763 166.243 367.086 167.332 369.34C167.839 370.425 168.393 371.48 168.994 372.501C169.147 372.677 169.334 372.809 169.541 372.886C169.748 372.964 169.969 372.984 170.184 372.946C171.17 372.875 172.15 372.717 173.114 372.471C177.675 371.16 182.146 369.479 186.495 367.441L189.856 373.48C187.838 375.448 185.7 377.252 183.46 378.881C181.159 380.589 178.724 382.054 176.188 383.259C174.778 383.94 173.315 384.471 171.819 384.846C169.9 385.351 167.912 385.412 165.972 385.024C164.554 384.72 163.213 384.061 162.048 383.095C161.406 382.567 160.83 381.943 160.335 381.241L159.641 380.276C158.769 378.97 157.932 377.65 157.13 376.314C154.238 371.095 151.84 365.545 149.975 359.755C149.06 356.936 148.209 354.101 147.49 351.223C147.124 349.739 146.784 348.359 146.457 346.905C146.13 345.451 145.842 344.056 145.554 342.453L158.033 339.515Z" fill="#FFB573"/>
<path d="M188.352 374.118L197.116 369.326L192.276 361.417C192.276 361.417 185.736 363.776 185.383 370.201L188.352 374.118Z" fill="#FFB573"/>
<path d="M199.182 365.468L196.305 358.078L192.211 361.417L197.076 369.326L199.182 365.468Z" fill="#FFB573"/>
<path d="M149.779 362.47L163.291 357.025C163.291 357.025 165.214 354.932 161.721 341.964C157.653 326.843 149.949 325.345 143.919 332.69C137.889 340.035 145.554 350.184 149.779 362.47Z" fill="#407BFF"/>
<path opacity="0.5" d="M149.779 362.47L163.291 357.025C163.291 357.025 165.214 354.932 161.721 341.964C157.653 326.843 149.949 325.345 143.919 332.69C137.889 340.035 145.554 350.184 149.779 362.47Z" fill="white"/>
<path d="M148.34 361.135L164.115 354.843L164.455 358.316L149.949 364.117L148.34 361.135Z" fill="#407BFF"/>
<path d="M124.025 314.646C126.114 314.286 128.248 314.473 130.264 315.196C130.632 315.338 131.034 315.327 131.396 315.164C131.758 315.001 132.057 314.696 132.239 314.305C133.403 311.798 135.718 306.723 136.608 304.438C136.608 304.438 140.702 302.167 138.661 295.891C136.621 289.614 136.608 287.626 136.608 287.626C136.608 287.626 142.964 281.32 136.935 277.61C130.905 273.9 133.665 280.696 127.02 282.18C120.375 283.664 112.841 291.083 115.575 300.12C117.589 306.782 121.252 311.664 122.35 313.756C122.518 314.079 122.767 314.337 123.066 314.496C123.365 314.655 123.699 314.707 124.025 314.646Z" fill="#263238"/>
<path d="M133.782 297.716C136.006 297.33 138.4 299.882 139.184 302.167C140.061 304.749 138.923 307.687 136.568 306.975C134.76 306.389 133.202 305.075 132.187 303.28C130.957 300.995 131.559 298.087 133.782 297.716Z" fill="#FFB573"/>
<path d="M130.552 502.559V446.633H122.704V502.692L102.717 508.628C101.044 509.132 99.5654 510.249 98.5104 511.805C97.4553 513.362 96.8834 515.27 96.8837 517.234V519.059C96.8837 519.944 97.1937 520.794 97.7457 521.42C98.2976 522.046 99.0461 522.398 99.8267 522.398C100.607 522.398 101.356 522.046 101.908 521.42C102.46 520.794 102.77 519.944 102.77 519.059C102.766 518.019 103.067 517.007 103.626 516.182C104.185 515.357 104.969 514.767 105.857 514.504L122.704 509.459V519.059C122.704 519.944 123.014 520.794 123.566 521.42C124.117 522.046 124.866 522.398 125.647 522.398H127.596C128.376 522.398 129.125 522.046 129.677 521.42C130.228 520.794 130.539 519.944 130.539 519.059V509.399L147.307 514.667C148.214 514.934 149.015 515.541 149.58 516.389C150.145 517.238 150.441 518.278 150.42 519.341V519.341C150.413 520.225 150.714 521.077 151.258 521.711C151.802 522.344 152.544 522.708 153.324 522.724V522.724C153.711 522.73 154.096 522.649 154.456 522.486C154.816 522.322 155.144 522.08 155.421 521.773C155.698 521.465 155.919 521.099 156.071 520.694C156.223 520.289 156.303 519.855 156.306 519.415V517.59C156.325 515.625 155.772 513.709 154.731 512.139C153.69 510.569 152.22 509.433 150.551 508.91L130.552 502.559Z" fill="#263238"/>
<path d="M94.9739 528.615C94.9713 527.543 95.2491 526.494 95.7721 525.602C96.2951 524.709 97.0399 524.013 97.912 523.601C98.7841 523.188 99.7445 523.079 100.671 523.286C101.598 523.494 102.45 524.008 103.119 524.765C103.788 525.522 104.244 526.487 104.43 527.538C104.615 528.589 104.521 529.679 104.16 530.669C103.799 531.66 103.187 532.506 102.402 533.102C101.616 533.698 100.693 534.016 99.7481 534.016C98.4842 534.016 97.2718 533.447 96.3768 532.435C95.4819 531.422 94.9774 530.049 94.9739 528.615V528.615Z" fill="#407BFF"/>
<path d="M148.654 528.615C148.652 527.543 148.93 526.494 149.453 525.602C149.976 524.709 150.72 524.013 151.592 523.601C152.465 523.188 153.425 523.079 154.352 523.286C155.279 523.494 156.131 524.008 156.8 524.765C157.469 525.522 157.925 526.487 158.11 527.538C158.295 528.589 158.201 529.679 157.841 530.669C157.48 531.66 156.868 532.506 156.082 533.102C155.297 533.698 154.373 534.016 153.429 534.016C152.165 534.016 150.952 533.447 150.057 532.435C149.162 531.422 148.658 530.049 148.654 528.615V528.615Z" fill="#407BFF"/>
<path d="M121.814 528.615C121.811 527.543 122.089 526.494 122.612 525.602C123.135 524.709 123.88 524.013 124.752 523.601C125.624 523.188 126.585 523.079 127.512 523.286C128.439 523.494 129.29 524.008 129.959 524.765C130.628 525.522 131.084 526.487 131.27 527.538C131.455 528.589 131.361 529.679 131 530.669C130.639 531.66 130.027 532.506 129.242 533.102C128.457 533.698 127.533 534.016 126.588 534.016C125.324 534.016 124.112 533.447 123.217 532.435C122.322 531.422 121.817 530.049 121.814 528.615V528.615Z" fill="#407BFF"/>
<path opacity="0.6" d="M130.551 446.678H122.716V459.305H130.551V446.678Z" fill="black"/>
<path opacity="0.6" d="M116.87 511.298L121.814 509.815V503.004L116.87 504.488V511.298Z" fill="black"/>
<path opacity="0.6" d="M136.307 504.369L131.349 502.811V509.652L136.307 511.21V504.369Z" fill="black"/>
<path d="M133.024 442.924H180.622C182.072 442.924 183.463 443.577 184.488 444.74C185.513 445.903 186.089 447.481 186.089 449.126H133.024V442.924Z" fill="#407BFF"/>
<path opacity="0.5" d="M133.024 442.924H180.622C182.072 442.924 183.463 443.577 184.488 444.74C185.513 445.903 186.089 447.481 186.089 449.126H133.024V442.924Z" fill="black"/>
<path d="M99.2379 363.539C82.5086 363.539 70.5927 377.694 71.4691 396.539L73.3787 437.73C73.5227 440.792 74.6963 443.674 76.6577 445.783C78.619 447.892 81.2188 449.067 83.9212 449.067H151.152L137.261 396.539C132.278 377.754 115.967 363.539 99.2379 363.539Z" fill="#407BFF"/>
<path opacity="0.1" d="M99.2379 363.539C82.5086 363.539 70.5927 377.694 71.4691 396.539L73.3787 437.73C73.5227 440.792 74.6963 443.674 76.6577 445.783C78.619 447.892 81.2188 449.067 83.9212 449.067H151.152L137.261 396.539C132.278 377.754 115.967 363.539 99.2379 363.539Z" fill="black"/>
<path opacity="0.3" d="M95.8502 363.806C80.9259 365.586 70.6581 379.045 71.469 396.598L73.3787 437.73C73.5227 440.792 74.6963 443.674 76.6576 445.783C78.619 447.892 81.2187 449.067 83.9212 449.067H144.377L130.486 396.539C125.843 379.03 111.35 365.557 95.8502 363.806Z" fill="black"/>
<path d="M158.713 447.345C158.225 446.789 157.952 446.037 157.952 445.253C157.952 444.469 158.225 443.717 158.713 443.161L172.957 427.002C173.164 426.768 173.305 426.468 173.362 426.143C173.42 425.817 173.39 425.48 173.278 425.173C173.166 424.866 172.976 424.604 172.733 424.42C172.489 424.236 172.203 424.138 171.91 424.138H141.382C140.688 424.138 140.022 423.826 139.532 423.269C139.041 422.712 138.766 421.958 138.766 421.171C138.766 420.383 139.041 419.629 139.532 419.072C140.022 418.516 140.688 418.203 141.382 418.203H171.636C172.888 418.176 174.123 418.533 175.212 419.236C176.301 419.938 177.202 420.96 177.823 422.194C178.512 423.637 178.771 425.294 178.561 426.918C178.351 428.541 177.684 430.044 176.658 431.201L162.414 447.345C162.171 447.621 161.883 447.84 161.565 447.99C161.248 448.139 160.907 448.216 160.563 448.216C160.22 448.216 159.879 448.139 159.562 447.99C159.244 447.84 158.956 447.621 158.713 447.345Z" fill="#263238"/>
<path opacity="0.2" d="M177.888 422.194C177.268 420.96 176.366 419.938 175.277 419.236C174.189 418.533 172.953 418.176 171.701 418.203H141.382C140.688 418.203 140.022 418.516 139.532 419.072C139.041 419.629 138.766 420.383 138.766 421.171C138.766 421.958 139.041 422.712 139.532 423.269C140.022 423.826 140.688 424.138 141.382 424.138H171.91C172.148 424.131 172.383 424.198 172.591 424.331H178.49C178.379 423.59 178.176 422.871 177.888 422.194V422.194Z" fill="white"/>
<path d="M277.937 404.433H240.227C239.994 404.433 239.762 404.381 239.546 404.279C239.331 404.178 239.134 404.029 238.969 403.842C238.804 403.655 238.673 403.432 238.584 403.187C238.494 402.942 238.448 402.68 238.448 402.415V400.812H277.937V404.433Z" fill="#263238"/>
<path opacity="0.2" d="M277.937 404.433H240.227C239.994 404.433 239.762 404.381 239.546 404.279C239.331 404.178 239.134 404.029 238.969 403.842C238.804 403.655 238.673 403.432 238.584 403.187C238.494 402.942 238.448 402.68 238.448 402.415V400.812H277.937V404.433Z" fill="white"/>
<path d="M301.468 404.433H270.678C270.206 404.433 269.753 404.22 269.42 403.842C269.086 403.463 268.899 402.95 268.899 402.415V400.812H301.468V404.433Z" fill="#263238"/>
<path opacity="0.5" d="M301.468 404.433H270.678C270.206 404.433 269.753 404.22 269.42 403.842C269.086 403.463 268.899 402.95 268.899 402.415V400.812H301.468V404.433Z" fill="white"/>
<path d="M294.261 403.261H297.452V401.97H294.261V403.261Z" fill="#263238"/>
<path d="M289.29 403.261H292.482V401.97H289.29V403.261Z" fill="#263238"/>
<path d="M299.31 400.812H301.429L303.626 368.094H301.494L299.31 400.812Z" fill="#263238"/>
<path opacity="0.3" d="M299.31 400.812H301.429L303.626 368.094H301.494L299.31 400.812Z" fill="white"/>
<path d="M300.081 400.812H262.79L264.988 368.094H302.279L300.081 400.812Z" fill="#407BFF"/>
<path opacity="0.4" d="M300.081 400.812H262.79L264.988 368.094H302.279L300.081 400.812Z" fill="white"/>
<path d="M236.931 333.016C235.78 337.661 235.492 342.646 241.378 344.457C241.378 344.457 246.872 353.241 240.28 359.132C236.104 352.895 230.835 347.707 224.806 343.893C228.638 340.005 227.893 328.921 227.003 322.852L236.931 333.016Z" fill="#CE7A63"/>
<path d="M244.243 308.889C244.688 308.756 245.237 309.23 245.459 310.002C245.682 310.774 245.459 311.59 245.041 311.708C244.622 311.827 244.047 311.382 243.824 310.596C243.602 309.809 243.785 309.008 244.243 308.889Z" fill="#2E353A"/>
<path d="M245.551 307.85L244.047 308.993C245.119 309.631 245.551 307.85 245.551 307.85Z" fill="#2E353A"/>
<path d="M245.904 317.288C246.363 317.251 246.809 317.098 247.209 316.842C247.609 316.585 247.954 316.23 248.219 315.804C246.75 314.658 245.429 313.285 244.295 311.723L245.904 317.288Z" fill="#BA4D3C"/>
<path d="M242.608 303.77C242.167 304.113 241.806 304.571 241.553 305.106C241.301 305.64 241.164 306.235 241.156 306.841V306.841C241.158 306.904 241.149 306.966 241.129 307.024C241.11 307.083 241.08 307.136 241.043 307.182C241.005 307.227 240.96 307.264 240.91 307.289C240.86 307.315 240.806 307.329 240.751 307.331V307.331C240.696 307.333 240.642 307.323 240.591 307.3C240.541 307.278 240.494 307.245 240.455 307.202C240.416 307.159 240.385 307.107 240.364 307.051C240.343 306.994 240.332 306.933 240.332 306.871C240.333 306.105 240.497 305.351 240.808 304.672C241.12 303.993 241.571 303.409 242.124 302.969C242.215 302.897 242.327 302.868 242.437 302.887C242.546 302.906 242.645 302.973 242.713 303.072C242.751 303.144 242.771 303.226 242.771 303.31C242.771 303.394 242.751 303.476 242.713 303.547C242.7 303.632 242.663 303.71 242.608 303.77Z" fill="#2E353A"/>
<path d="M218.606 309.379C218.882 305.756 220.415 302.407 222.868 300.066C225.321 297.726 228.493 296.587 231.686 296.9C241.051 297.686 246.244 311.501 246.872 320.775C247.578 331.087 238.121 337.661 229.593 332.645C223.877 329.292 222.779 325.226 219.482 315.833C218.743 313.791 218.443 311.579 218.606 309.379V309.379Z" fill="#CE7A63"/>
<path opacity="0.21" d="M214.041 321.576C201.772 303.992 216.84 298.933 216.84 298.933C221.562 291.513 229.345 290.03 236.46 293.101C243.576 296.173 241.483 301.633 238.88 302.167C243.746 309.468 240.96 313.103 239.351 313.622C241.902 331.992 226.284 339.159 214.041 321.576Z" fill="#263238"/>
<path d="M224.832 399.225C222.423 398.874 220.04 398.318 217.704 397.563C217.356 397.431 217.015 397.278 216.683 397.103L216.579 395.159C216.304 389.342 216.199 383.407 216.082 377.457L215.82 359.651H206.769C206.769 365.72 206.873 371.729 207.109 377.769C207.344 383.808 207.658 389.847 208.26 395.96L208.574 398.275L208.731 399.432C208.76 399.792 208.808 400.148 208.875 400.501C208.973 400.841 209.091 401.173 209.228 401.495C209.474 402.033 209.781 402.532 210.143 402.979C210.645 403.569 211.222 404.07 211.857 404.463C212.312 404.755 212.784 405.013 213.269 405.234C214.062 405.576 214.875 405.854 215.702 406.065C218.51 406.715 221.365 407.062 224.23 407.104C229.636 407.245 235.043 406.948 240.41 406.214L240.319 401.183C235.126 400.634 229.881 400.1 224.832 399.225Z" fill="#CE7A63"/>
<path d="M223.563 356.327C223.563 362.544 220.267 374.133 220.267 374.133L206.664 364.696C206.049 356.728 207.501 346.489 214.237 343.996C218.828 342.32 223.511 349.709 223.563 356.327Z" fill="#263238"/>
<path opacity="0.6" d="M213.792 351.861L210.666 355.363L210.065 367.07L220.267 374.178C220.267 374.178 223.563 362.544 223.563 356.372C223.531 354.757 223.271 353.159 222.792 351.638L218.096 350.036L213.792 351.861Z" fill="black"/>
<path d="M252.797 403.943C252.888 403.705 252.936 403.448 252.939 403.188C252.942 402.928 252.9 402.671 252.815 402.429C252.73 402.188 252.604 401.968 252.443 401.782C252.283 401.597 252.092 401.449 251.882 401.347L248.023 399.492C247.194 399.104 246.276 399.032 245.407 399.284L237.01 401.851L235.976 405.071C237.284 408.766 242.843 408.039 242.843 408.039L246.833 409.434C247.337 409.611 247.877 409.61 248.381 409.433C248.885 409.256 249.33 408.909 249.658 408.439L252.575 404.359C252.667 404.234 252.742 404.094 252.797 403.943V403.943Z" fill="#CE7A63"/>
<path d="M246.676 343.848C244.936 343.507 243.105 343.195 241.326 342.958C235.851 342.325 230.344 342.137 224.845 342.394C222.138 342.394 219.483 342.676 217.154 342.958H216.971C214.948 343.264 213.114 344.469 211.873 346.308C210.632 348.147 210.085 350.47 210.353 352.766C213.649 379.475 215.088 390.797 214.133 406.035L250.521 407.282C254.759 382.413 256.486 367.589 257.061 358.864C257.29 355.344 256.352 351.853 254.431 349.075C252.51 346.298 249.745 344.434 246.676 343.848V343.848Z" fill="#263238"/>
<path d="M288.911 496.905L297.505 495.985L303.299 519.994L294.705 520.914L288.911 496.905Z" fill="#CE7A63"/>
<path d="M226.467 406.021C212.641 426.794 213.74 444.496 228.024 444.496C240.75 444.496 256.616 445.357 273.803 444.111C277.584 475.553 292.024 512.189 292.024 512.189L301.559 511.18C301.559 511.18 292.861 465.181 292.194 433.056C291.775 413.633 243.432 415.25 243.432 415.25C243.432 415.25 234.956 406.08 226.467 406.021Z" fill="#263238"/>
<path opacity="0.3" d="M226.467 406.021C212.641 426.794 213.74 444.496 228.024 444.496C240.75 444.496 256.616 445.357 273.803 444.111C277.584 475.553 292.024 512.189 292.024 512.189L301.559 511.18C301.559 511.18 292.861 465.181 292.194 433.056C291.775 413.633 243.432 415.25 243.432 415.25C243.432 415.25 234.956 406.08 226.467 406.021Z" fill="white"/>
<path opacity="0.2" d="M293.332 451.856C292.77 445.372 292.364 438.977 292.246 433.056C291.828 413.633 243.484 415.25 243.484 415.25C242.416 414.15 241.293 413.12 240.123 412.164C238.252 412.431 237.18 412.609 237.18 412.609C237.18 412.609 229.881 412.475 222.608 412.416C213.021 430.222 215.244 444.467 228.024 444.467C235.584 444.467 244.282 444.763 253.7 444.749C266.492 440.787 279.729 435.846 285.733 433.679C287.72 440.013 290.267 446.103 293.332 451.856V451.856Z" fill="black"/>
<path d="M214.25 403.276L251.11 404.522C251.463 404.522 251.711 404.759 251.711 405.012L251.293 408.751C251.293 408.973 250.979 409.137 250.652 409.137L213.204 407.89C212.785 407.89 212.498 407.579 212.628 407.297L213.662 403.632C213.719 403.514 213.805 403.418 213.91 403.355C214.014 403.292 214.132 403.264 214.25 403.276Z" fill="#263238"/>
<path d="M275.072 390.782C271.148 391.36 267.067 391.924 263.157 392.266C261.279 392.471 259.392 392.55 257.506 392.503C256.993 392.488 256.481 392.428 255.976 392.325C255.64 390.669 255.408 388.988 255.282 387.295C255.138 385.203 255.099 383.095 255.138 380.988C255.178 378.881 255.348 376.656 255.544 374.519C255.635 373.436 255.753 372.308 255.897 371.284C256.041 370.26 256.185 369.088 256.329 368.213L247.5 366.076C247.238 367.441 247.055 368.584 246.898 369.815C246.741 371.047 246.623 372.219 246.506 373.495C246.287 375.96 246.187 378.437 246.205 380.914C246.169 386.106 246.903 391.267 248.376 396.183L248.52 396.658L248.638 396.984L248.795 397.4C248.913 397.655 249.044 397.903 249.187 398.142C249.669 398.927 250.299 399.581 251.031 400.056C251.893 400.603 252.839 400.96 253.817 401.109C255.117 401.318 256.434 401.353 257.741 401.213C259.944 400.999 262.13 400.602 264.281 400.026C268.375 398.937 272.393 397.509 276.302 395.753L275.072 390.782Z" fill="#CE7A63"/>
<path d="M241.875 355.051C238.998 359.621 244.753 372.086 244.753 372.086L256.133 371.269C256.133 371.269 259.102 355.244 253.87 348.3C251.045 344.59 244.91 350.288 241.875 355.051Z" fill="#263238"/>
<path d="M284.411 382.65C284.656 382.68 284.893 382.764 285.108 382.898C285.324 383.032 285.514 383.214 285.667 383.432C285.821 383.65 285.934 383.9 286.002 384.169C286.069 384.437 286.089 384.718 286.059 384.995L285.615 390.604C285.581 391.024 285.439 391.425 285.207 391.754C284.974 392.084 284.661 392.329 284.307 392.458L279.807 393.942C279.807 393.942 271.501 399.878 268.82 397.311L271.92 392.444L277.584 385.114C278.221 384.279 279.087 383.709 280.043 383.496L283.836 382.636C284.027 382.606 284.221 382.611 284.411 382.65V382.65Z" fill="#CE7A63"/>
<path d="M304.018 519.341C306.059 521.7 309.538 525.039 312.939 525.988C315.11 526.597 316.444 530.588 312.311 530.113C308.178 529.639 303.77 528.63 301.337 528.333C297.413 527.739 296 527.992 292.835 527.635C292.459 527.573 292.121 527.345 291.893 527C291.665 526.655 291.566 526.222 291.619 525.796L292.992 517.857C293.021 517.687 293.106 517.537 293.231 517.437C293.355 517.338 293.509 517.297 293.659 517.323L302.697 518.673C303.191 518.724 303.655 518.958 304.018 519.341V519.341Z" fill="#263238"/>
<path d="M238.815 302.182C238.815 302.182 243.288 307.939 240.319 314.157C240.319 314.157 237.585 318.044 238.815 326.205C240.044 334.366 245.551 340.94 233.177 340.866C221.536 340.791 206.926 343.462 208.561 330.568C208.561 330.568 203.25 324.914 209.228 318.875C209.228 318.875 204.715 311.782 210.287 306.174C210.287 306.174 207.41 294.585 217.376 295.164C217.376 295.164 219.6 283.634 230.221 290.104C230.221 290.104 234.721 281.972 241.535 290.104C241.535 290.104 252.627 291.128 244.805 298.443C244.805 298.473 245.185 304.408 238.815 302.182Z" fill="#263238"/>
<path d="M247.212 314.142C246.947 314.14 246.691 314.029 246.492 313.83C245.498 312.881 245.093 309.809 244.975 308.533L239.743 311.337L239.469 310.655L246.728 306.812C246.905 306.705 247.103 306.649 247.303 306.649C247.504 306.649 247.702 306.705 247.879 306.812C248.056 306.917 248.209 307.066 248.327 307.249C248.445 307.432 248.524 307.642 248.559 307.865C248.847 309.839 249.017 312.406 248.258 313.533C248.149 313.696 248.011 313.832 247.854 313.931C247.696 314.031 247.522 314.093 247.343 314.112L247.212 314.142ZM245.603 308.206C245.721 309.572 246.126 312.51 246.911 313.266C247.001 313.357 247.118 313.404 247.238 313.4C247.331 313.392 247.421 313.362 247.502 313.31C247.584 313.259 247.654 313.188 247.709 313.103C248.18 312.406 248.245 310.551 247.866 308.014C247.854 307.903 247.818 307.797 247.761 307.707C247.703 307.616 247.627 307.543 247.539 307.494C247.45 307.443 247.351 307.417 247.251 307.417C247.151 307.417 247.053 307.443 246.963 307.494L245.603 308.206Z" fill="#407BFF"/>
<path d="M235.44 314.172C235.391 313.71 235.422 313.241 235.533 312.793C235.644 312.345 235.832 311.926 236.086 311.561C236.34 311.195 236.655 310.89 237.014 310.664C237.372 310.437 237.766 310.293 238.174 310.239C240.554 309.957 242.385 313.207 242.909 315.448C243.484 318 242.229 320.344 239.9 319.513C238.142 318.856 236.685 317.438 235.845 315.566C235.622 315.141 235.483 314.665 235.44 314.172V314.172Z" fill="#CE7A63"/>
<path d="M315.477 475.33L322.762 467.496L332.507 484.293L326.673 490.02L315.477 475.33Z" fill="#CE7A63"/>
<path d="M217.573 406.362C216.71 406.352 215.87 406.672 215.186 407.269C214.503 407.867 214.017 408.707 213.806 409.656C208.888 431.409 214.434 444.556 228.024 444.556C240.75 444.556 275.478 431.661 286.387 427.655C295.543 457.599 321.899 484.411 321.899 484.411L328.818 477.215C328.818 477.215 313.462 443.665 302.841 413.826C296.746 396.687 237.834 406.585 237.834 406.585C237.834 406.585 226.114 406.362 217.573 406.362Z" fill="#263238"/>
<path opacity="0.3" d="M217.573 406.362C216.71 406.352 215.87 406.672 215.186 407.269C214.503 407.867 214.017 408.707 213.806 409.656C208.888 431.409 214.434 444.556 228.024 444.556C240.75 444.556 275.478 431.661 286.387 427.655C295.543 457.599 321.899 484.411 321.899 484.411L328.818 477.215C328.818 477.215 313.462 443.665 302.841 413.826C296.746 396.687 237.834 406.585 237.834 406.585C237.834 406.585 226.114 406.362 217.573 406.362Z" fill="white"/>
<path d="M332.611 480.568C335.515 480.316 339.714 477.808 342.356 475.197C344.37 473.179 346.698 475.494 344.684 478.625C342.67 481.755 338.288 486.207 336.601 488.24C333.841 491.549 333.331 493.151 331.042 495.659C330.757 495.944 330.386 496.09 330.007 496.068C329.628 496.046 329.272 495.857 329.014 495.54L324.462 489.175C324.411 489.109 324.373 489.032 324.348 488.949C324.324 488.866 324.315 488.779 324.321 488.691C324.327 488.604 324.348 488.519 324.384 488.442C324.419 488.364 324.468 488.295 324.528 488.24L331.251 481.251C331.624 480.857 332.103 480.617 332.611 480.568V480.568Z" fill="#263238"/>
<path d="M227.84 502.559V446.633H219.992V502.692L200.019 508.628C198.344 509.129 196.862 510.245 195.804 511.802C194.747 513.358 194.173 515.268 194.172 517.234V519.059C194.172 519.944 194.483 520.794 195.034 521.42C195.586 522.046 196.335 522.398 197.115 522.398C197.896 522.398 198.645 522.046 199.196 521.42C199.748 520.794 200.058 519.944 200.058 519.059C200.055 518.019 200.356 517.007 200.915 516.182C201.474 515.357 202.258 514.767 203.145 514.504L219.992 509.459V519.059C219.992 519.944 220.302 520.794 220.854 521.42C221.406 522.046 222.155 522.398 222.935 522.398H224.884C225.665 522.398 226.413 522.046 226.965 521.42C227.517 520.794 227.827 519.944 227.827 519.059V509.399L244.596 514.667C245.479 514.945 246.255 515.548 246.804 516.38C247.353 517.212 247.644 518.227 247.63 519.267V519.267C247.623 520.154 247.926 521.007 248.473 521.642C249.02 522.276 249.766 522.638 250.547 522.65V522.65C250.934 522.654 251.317 522.571 251.676 522.407C252.034 522.243 252.36 522 252.636 521.693C252.912 521.386 253.131 521.02 253.282 520.616C253.434 520.213 253.513 519.779 253.516 519.341V517.516C253.536 515.551 252.982 513.635 251.941 512.065C250.9 510.495 249.43 509.359 247.761 508.835L227.84 502.559Z" fill="#263238"/>
<path d="M192.276 528.615C192.273 527.542 192.552 526.493 193.075 525.6C193.599 524.707 194.344 524.011 195.217 523.599C196.09 523.187 197.051 523.079 197.978 523.287C198.906 523.496 199.758 524.012 200.426 524.77C201.095 525.529 201.549 526.495 201.733 527.547C201.917 528.599 201.821 529.689 201.458 530.679C201.096 531.67 200.482 532.515 199.694 533.109C198.907 533.703 197.982 534.019 197.037 534.016C195.775 534.012 194.566 533.442 193.674 532.43C192.782 531.418 192.279 530.046 192.276 528.615Z" fill="#407BFF"/>
<path d="M245.904 528.615C245.901 527.543 246.179 526.494 246.702 525.602C247.225 524.709 247.97 524.013 248.842 523.601C249.714 523.188 250.675 523.079 251.602 523.286C252.528 523.494 253.38 524.008 254.049 524.765C254.718 525.522 255.174 526.487 255.36 527.538C255.545 528.589 255.451 529.679 255.09 530.669C254.729 531.66 254.117 532.506 253.332 533.102C252.547 533.698 251.623 534.016 250.678 534.016C249.414 534.016 248.202 533.447 247.307 532.435C246.412 531.422 245.907 530.049 245.904 528.615V528.615Z" fill="#407BFF"/>
<path d="M219.103 528.615C219.1 527.543 219.378 526.494 219.901 525.602C220.424 524.709 221.169 524.013 222.041 523.601C222.913 523.188 223.874 523.079 224.8 523.286C225.727 523.494 226.579 524.008 227.248 524.765C227.917 525.522 228.373 526.487 228.559 527.538C228.744 528.589 228.65 529.679 228.289 530.669C227.928 531.66 227.316 532.506 226.531 533.102C225.746 533.698 224.822 534.016 223.877 534.016C222.614 534.012 221.404 533.442 220.51 532.431C219.615 531.419 219.11 530.047 219.103 528.615V528.615Z" fill="#407BFF"/>
<path opacity="0.6" d="M227.841 446.678H220.006V459.305H227.841V446.678Z" fill="black"/>
<path opacity="0.6" d="M214.159 511.298L219.103 509.815V503.004L214.159 504.488V511.298Z" fill="black"/>
<path opacity="0.6" d="M233.596 504.369L228.638 502.811V509.652L233.596 511.21V504.369Z" fill="black"/>
<path d="M230.313 442.924H277.924C279.372 442.928 280.759 443.583 281.782 444.745C282.804 445.908 283.378 447.484 283.378 449.126H230.313V442.924Z" fill="#407BFF"/>
<path opacity="0.5" d="M230.313 442.924H277.924C279.372 442.928 280.759 443.583 281.782 444.745C282.804 445.908 283.378 447.484 283.378 449.126H230.313V442.924Z" fill="black"/>
<path d="M196.527 363.539C179.798 363.539 167.882 377.694 168.758 396.539L170.681 437.73C170.821 440.778 171.982 443.649 173.928 445.756C175.873 447.864 178.455 449.048 181.145 449.067H248.376L234.485 396.539C229.567 377.754 213.269 363.539 196.527 363.539Z" fill="#407BFF"/>
<path opacity="0.1" d="M196.527 363.539C179.798 363.539 167.882 377.694 168.758 396.539L170.681 437.73C170.821 440.778 171.982 443.649 173.928 445.756C175.873 447.864 178.455 449.048 181.145 449.067H248.376L234.485 396.539C229.567 377.754 213.269 363.539 196.527 363.539Z" fill="black"/>
<path opacity="0.3" d="M193.152 363.806C178.215 365.586 167.947 379.045 168.758 396.598L170.681 437.73C170.821 440.778 171.983 443.649 173.928 445.756C175.873 447.864 178.455 449.048 181.145 449.067H241.601L227.71 396.539C223.132 379.03 208.652 365.557 193.152 363.806Z" fill="black"/>
<path d="M256.015 447.345C255.528 446.789 255.254 446.037 255.254 445.253C255.254 444.469 255.528 443.717 256.015 443.161L270.259 427.002C270.466 426.768 270.607 426.468 270.665 426.143C270.722 425.817 270.693 425.48 270.581 425.173C270.468 424.866 270.279 424.604 270.035 424.42C269.792 424.236 269.505 424.138 269.213 424.138H238.684C237.99 424.138 237.325 423.826 236.834 423.269C236.343 422.712 236.068 421.958 236.068 421.171C236.068 420.383 236.343 419.629 236.834 419.072C237.325 418.516 237.99 418.203 238.684 418.203H268.925C270.177 418.176 271.412 418.533 272.501 419.236C273.59 419.938 274.492 420.96 275.112 422.194C275.801 423.637 276.06 425.294 275.85 426.918C275.641 428.541 274.973 430.044 273.948 431.201L259.703 447.345C259.213 447.898 258.55 448.208 257.859 448.208C257.168 448.208 256.505 447.898 256.015 447.345V447.345Z" fill="#263238"/>
<path opacity="0.2" d="M275.112 422.194C274.492 420.96 273.59 419.938 272.501 419.236C271.412 418.533 270.177 418.176 268.925 418.203H238.684C237.99 418.203 237.325 418.516 236.834 419.072C236.343 419.629 236.068 420.383 236.068 421.171C236.068 421.958 236.343 422.712 236.834 423.269C237.325 423.826 237.99 424.138 238.684 424.138H269.213C269.446 424.134 269.676 424.2 269.88 424.331H275.779C275.653 423.585 275.428 422.864 275.112 422.194Z" fill="white"/>
</svg>
